<?xml version="1.0" encoding="UTF-8"?>
<svg id="Layer_2" data-name="Layer 2" xmlns="http://www.w3.org/2000/svg" viewBox="0 0 493.14 493.42">
  <defs>
    <style>
      .cls-1 {
        fill: #e4e4e4;
      }

      .cls-1, .cls-2, .cls-3, .cls-4, .cls-5 {
        stroke-width: 0px;
      }

      .cls-2 {
        fill: #6c3f99;
      }

      .cls-3 {
        fill: #f93;
      }

      .cls-4 {
        fill: #e8e4ea;
      }

      .cls-5 {
        fill: #0f0c11;
      }
    </style>
  </defs>
  <g id="Layer_2-2" data-name="Layer 2">
    <g>
      <g>
        <g>
          <path class="cls-4" d="M19.91,148.12l7.15-13.84c5.33-10.32,14.95-12.52,23.05-8.34,9.79,5.06,12.14,15.37,7.53,24.29l-7.08,13.71-30.65-15.82ZM48.66,153.53l2.72-5.27c3.1-6.01,1.37-10.98-5.16-14.35-5.66-2.92-10.71-1.78-13.99,4.35l-2.76,5.36,19.2,9.91Z"/>
          <path class="cls-4" d="M72.55,100.95l-11.46,15.48,6.3,4.67,12.74-17.21,4.81,4.78-17.15,23.16-27.73-20.53,17.06-23.04,5.4,3.99-12.07,16.3,5.24,3.88,11.46-15.48,5.4,4Z"/>
          <path class="cls-4" d="M83.92,94.89c2.8,1.44,5.85,1.18,9.93-2.84,3.84-3.79,3.75-6.04,2.2-7.61-1.69-1.71-3.73-1.55-9.75,2.67-9.99,6.96-14.24,5.72-17.51,2.41-4.85-4.92-2.59-12.04,3.24-17.79,8.41-8.29,14.98-6.24,18.08-3.65l-5.96,5.88c-1.55-.88-4.01-1.69-8.05,2.3-2.83,2.79-3.36,5.1-1.78,6.71,1.38,1.39,3.11,1.13,8.51-2.61,10.96-7.51,15.22-6.13,18.73-2.58,4.2,4.26,4.26,11.01-3.98,19.13-7.67,7.57-14.5,7.56-19.64,3.88l6-5.92Z"/>
          <path class="cls-4" d="M96.63,51.1l21.43,27.03-6.56,5.21-21.43-27.03,6.56-5.21Z"/>
          <path class="cls-4" d="M150.89,56.83l-5.19,3.17c-.55-.53-1.58-1.74-2.34-2.71-.49,3.34-2.17,6.32-7.69,9.69-9.54,5.82-18.86,2.5-24.11-6.12-5.26-8.62-3.83-18.96,6.71-25.4,9.45-5.77,16.65-3.1,20.05.68l-7.19,4.39c-1.5-1.15-4.75-2.61-9.56.32-6.06,3.7-6.03,9.59-2.68,15.07,3.52,5.77,8.87,8.42,14.89,4.74,4.98-3.04,5.65-7.01,3.51-10.52l-.28-.46-7.15,4.37-3.37-5.52,14.09-8.6,10.31,16.9Z"/>
          <path class="cls-4" d="M154.41,55.16l-12.47-32.16,9.23-3.58c14.4,10.29,19.95,13.91,23.43,16.93l.09-.04c-1.63-3.26-3.91-9.26-5.96-14.56l-3.08-7.95,7.17-2.78,12.47,32.16-8.68,3.37c-4.88-3.63-21.4-15.62-24.74-18.53l-.09.04c1.8,3.82,3.59,8.44,5.8,14.15l3.95,10.19-7.13,2.76Z"/>
          <path class="cls-4" d="M190.29,6.82l8.41,33.45-8.13,2.04-8.41-33.45,8.13-2.04Z"/>
          <path class="cls-4" d="M203.73,38.56l-4.25-34.24,9.82-1.22c11.45,13.49,15.96,18.36,18.6,22.13h.1c-.79-3.57-1.53-9.95-2.23-15.59l-1.05-8.46,7.63-.95,4.25,34.23-9.24,1.15c-3.84-4.71-16.95-20.36-19.48-24h-.1c.81,4.16,1.42,9.07,2.18,15.15l1.35,10.84-7.59.94Z"/>
          <path class="cls-4" d="M275.39,36.11l-6.07-.32c-.16-.75-.32-2.32-.4-3.55-2.29,2.48-5.36,3.98-11.82,3.64-11.16-.6-16.96-8.61-16.42-18.69.54-10.08,7.57-17.8,19.91-17.15,11.06.59,15.48,6.86,16.15,11.9l-8.42-.45c-.59-1.8-2.44-4.84-8.07-5.14-7.1-.38-10.4,4.5-10.74,10.91-.36,6.75,2.55,11.96,9.6,12.34,5.82.31,8.63-2.58,8.85-6.69l.03-.54-8.37-.45.34-6.46,16.49.88-1.05,19.77Z"/>
          <path class="cls-4" d="M299.03,5.52l18.4,5.16c7.93,2.22,10.29,7.06,8.98,11.73-1.08,3.87-4.08,5.47-6.94,5.69,2.93,1.89,5.2,5.22,4.02,9.42-1.76,6.28-7.54,8.57-15.71,6.28l-18.07-5.07,9.31-33.21ZM299.32,34.97l9.11,2.55c3.11.87,5.72.64,6.65-2.66.74-2.64-.67-4.51-4.21-5.51l-9.25-2.59-2.3,8.21ZM312.1,23.18c3.59,1,5.16-.08,5.73-2.11.7-2.5-.96-4.03-3.74-4.81l-8.82-2.47-1.94,6.94,8.78,2.46Z"/>
          <path class="cls-4" d="M336.29,40.05l-5.62,12.03-7.5-3.51,14.61-31.25,17,7.95c7.24,3.38,9.7,8.86,7.19,14.23-1.89,4.04-5.34,5.29-8.9,4.82,1.04,1.13,3.79,3.93,1.17,9.53l-.73,1.55c-1.02,2.17-2.14,4.57-2.42,6.22l-7.77-3.63c.11-1.62.94-3.51,2.47-6.79l.5-1.07c1.47-3.15.92-4.98-3.65-7.12l-6.35-2.97ZM338.97,34.33l7.81,3.65c3.68,1.72,5.91,1.14,7.13-1.48,1.16-2.49.16-4.63-3.43-6.31l-7.86-3.67-3.65,7.81Z"/>
          <path class="cls-4" d="M365.4,61.65l-6.93,4.74-7.08-4.92,31.06-20.43,8.86,6.15-7.67,36.66-7.45-5.17,1.81-8.28-12.6-8.75ZM379.93,63.57c1.84-8.32,2.87-12.56,3.67-15.17l-.04-.03c-2.06,1.68-6.58,4.92-12.56,8.99l8.94,6.2Z"/>
          <path class="cls-4" d="M383.79,84.32l24.2-24.58,7.05,6.94c-3.47,17.35-4.49,23.91-5.81,28.32l.07.07c2.3-2.82,6.84-7.36,10.83-11.41l5.98-6.07,5.48,5.4-24.2,24.58-6.63-6.53c1.31-5.94,5.45-25.92,6.73-30.16l-.07-.07c-2.75,3.21-6.22,6.73-10.52,11.1l-7.67,7.79-5.45-5.36Z"/>
          <path class="cls-4" d="M438.61,91.33l9.04,12.69c6.74,9.46,4.29,19.02-3.13,24.31-8.98,6.4-19.21,3.76-25.04-4.42l-8.96-12.57,28.09-20.01ZM420.65,114.41l3.44,4.83c3.92,5.51,9.14,6.24,15.12,1.98,5.19-3.7,6.49-8.71,2.53-14.43l-3.5-4.91-17.6,12.54Z"/>
          <path class="cls-4" d="M442.98,141.8c-2.26,2.19-2.99,5.17-.47,10.32,2.36,4.84,4.53,5.48,6.51,4.51,2.16-1.05,2.66-3.04.58-10.1-3.41-11.69-.88-15.33,3.3-17.37,6.21-3.03,12.24,1.39,15.82,8.74,5.18,10.61,1.14,16.18-2.3,18.3l-3.67-7.53c1.33-1.19,2.88-3.26.39-8.37-1.74-3.57-3.77-4.81-5.79-3.83-1.76.86-2.06,2.59-.24,8.89,3.62,12.79.96,16.38-3.53,18.57-5.37,2.62-11.79.52-16.86-9.87-4.73-9.69-2.54-16.15,2.58-19.85l3.7,7.57Z"/>
        </g>
        <g>
          <path class="cls-4" d="M10.76,251.49c-5.98-1.91-11.33-7.03-10.71-17.84.7-12.33,9.55-17.76,18.95-17.22,9.44.54,17.63,7.53,16.94,19.71-.6,10.57-6.77,15.46-12.55,16.17l.48-8.46c2-.62,5.28-2.3,5.62-8.17.37-6.46-4.38-10.07-10.64-10.42-6.36-.36-11.96,2.36-12.35,9.16-.28,4.89,1.51,7.15,4.75,8.71l-.48,8.37Z"/>
          <path class="cls-4" d="M14.22,264.35l-13.21,1.32-.82-8.24,34.32-3.42,1.86,18.67c.79,7.95-2.66,12.87-8.56,13.46-4.44.44-7.28-1.89-8.69-5.19-.44,1.47-1.45,5.26-7.59,5.88l-1.71.17c-2.39.24-5.02.5-6.59,1.1l-.85-8.53c1.45-.73,3.5-.99,7.1-1.35l1.17-.12c3.46-.34,4.75-1.75,4.25-6.77l-.69-6.97ZM20.51,263.72l.85,8.58c.4,4.05,2.04,5.66,4.92,5.37,2.73-.27,4.06-2.23,3.67-6.17l-.86-8.63-8.58.85Z"/>
          <path class="cls-4" d="M25.92,319.26l-4.83-18.64-7.59,1.97,5.38,20.72-6.74.74-7.23-27.88,33.39-8.66,7.19,27.74-6.5,1.69-5.09-19.63-6.31,1.64,4.83,18.64-6.5,1.69Z"/>
          <path class="cls-4" d="M25.38,336.49l-8.38.45-3.5-7.88,37.15-1.32,4.37,9.85-25.6,27.34-3.68-8.29,5.85-6.14-6.22-14.02ZM36.81,345.68c5.9-6.16,8.98-9.24,11.01-11.06l-.02-.04c-2.63.36-8.17.79-15.41,1.16l4.41,9.94Z"/>
          <path class="cls-4" d="M58.08,357.57l-6.35-10.36,5.68-3.48,17.05,27.82-5.68,3.48-6.32-10.32-23.73,14.54-4.38-7.14,23.73-14.54Z"/>
          <path class="cls-4" d="M80.83,378.96l-27.41,20.95-5.09-6.66,27.41-20.95,5.09,6.66Z"/>
          <path class="cls-4" d="M58.63,407.08l24.72-24.06,6.9,7.09c-3.84,17.28-5,23.81-6.41,28.19l.07.07c2.36-2.78,6.99-7.22,11.07-11.18l6.11-5.95,5.37,5.51-24.72,24.06-6.49-6.67c1.43-5.91,6-25.8,7.37-30.01l-.07-.07c-2.81,3.15-6.36,6.6-10.75,10.88l-7.83,7.62-5.33-5.48Z"/>
          <path class="cls-4" d="M116.92,457.25l-4.93-3.55c.27-.71.99-2.12,1.58-3.21-3.27.85-6.67.45-11.92-3.33-9.07-6.53-9.62-16.41-3.72-24.6,5.9-8.19,15.99-10.88,26.01-3.67,8.99,6.47,9.32,14.14,7.16,18.74l-6.84-4.93c.47-1.83.56-5.39-4.01-8.69-5.77-4.15-11.18-1.83-14.93,3.38-3.95,5.49-4.32,11.45,1.41,15.57,4.73,3.41,8.65,2.49,11.06-.85l.31-.44-6.8-4.9,3.78-5.25,13.4,9.65-11.57,16.06Z"/>
          <path class="cls-4" d="M141.09,470.32l3.57-35.68,8.16,3.23c-1.05,8.12-2.52,21.29-4.08,27.37l.04.02c3.39-5.51,11.35-15.9,16.43-22.48l7.43,2.94c-.79,7.86-2.36,22.36-3.35,27.39l.09.04c3.22-5.47,11.05-16.08,15.74-22.49l7.84,3.1-22.39,28.24-8.43-3.33c.74-7.87,2.31-21.43,3.08-26.44l-.05-.02c-3.12,5.09-10.35,14.45-15.7,21.45l-8.38-3.32Z"/>
          <path class="cls-4" d="M216.59,477.38l-18.91-3.63-1.48,7.7,21.03,4.04-2.23,6.41-28.3-5.43,6.5-33.88,28.15,5.4-1.26,6.59-19.92-3.82-1.23,6.4,18.91,3.63-1.26,6.59Z"/>
          <path class="cls-4" d="M223.98,458.25l19.1.69c8.23.3,11.66,4.44,11.48,9.29-.15,4.01-2.68,6.28-5.41,7.16,3.29,1.15,6.28,3.86,6.13,8.21-.24,6.51-5.32,10.11-13.79,9.8l-18.75-.68,1.25-34.47ZM231.18,486.8l9.45.34c3.23.12,5.71-.72,5.84-4.15.1-2.74-1.71-4.23-5.38-4.36l-9.6-.35-.31,8.52ZM240.82,472.34c3.72.13,5-1.29,5.08-3.39.09-2.6-1.88-3.7-4.77-3.8l-9.16-.33-.26,7.2,9.11.33Z"/>
          <path class="cls-4" d="M298.92,473.37l-19,3.17,1.29,7.73,21.12-3.52.14,6.78-28.42,4.74-5.67-34.03,28.28-4.71,1.1,6.62-20.01,3.34,1.07,6.43,19-3.17,1.1,6.62Z"/>
          <path class="cls-4" d="M332.47,478.19l-12.17-8.65-.09.03-4.33,14.14-8.83,2.94,7.04-20.93-17.59-11.91,9.39-3.12,11.27,7.97.05-.02,4.3-13.15,8.55-2.84-7.03,19.69,18.61,12.81-9.16,3.04Z"/>
          <path class="cls-4" d="M329.94,442.41l15.89-8.1c7.16-3.65,13.74-2.5,16.84,3.57,3.21,6.29.62,12.33-6.88,16.16l-8.29,4.23,5.63,11.04-7.51,3.83-15.67-30.73ZM344.55,452.51l7.68-3.92c3.19-1.62,4.59-3.72,3.04-6.77-1.27-2.49-3.6-3.28-7.22-1.43l-7.68,3.92,4.19,8.21Z"/>
          <path class="cls-4" d="M392.74,427.49l-15.66,11.21,4.56,6.37,17.41-12.46,3.11,6.03-23.43,16.77-20.08-28.05,23.31-16.68,3.91,5.46-16.49,11.81,3.79,5.3,15.66-11.21,3.91,5.46Z"/>
          <path class="cls-4" d="M404.76,418.31l9.27,9.5-5.93,5.78-24.09-24.69,13.43-13.11c5.72-5.58,11.71-5.96,15.86-1.71,3.11,3.19,3.07,6.86,1.37,10.03,1.43-.57,5.02-2.16,9.33,2.26l1.2,1.23c1.68,1.72,3.53,3.61,4.97,4.46l-6.14,5.99c-1.48-.68-2.95-2.11-5.49-4.71l-.82-.84c-2.43-2.49-4.33-2.62-7.95.91l-5.01,4.89ZM400.35,413.78l6.17-6.02c2.91-2.84,3.15-5.12,1.13-7.19-1.92-1.96-4.28-1.78-7.12.99l-6.21,6.06,6.02,6.17Z"/>
          <path class="cls-4" d="M413.2,377.89l26.71,21.84-5.3,6.49-26.71-21.84,5.3-6.49Z"/>
          <path class="cls-4" d="M448.31,362.04l-10.54,16.11,6.56,4.29,11.72-17.92,5.08,4.49-15.77,24.11-28.86-18.88,15.69-23.98,5.62,3.68-11.11,16.97,5.45,3.57,10.54-16.11,5.62,3.68Z"/>
          <path class="cls-4" d="M465.03,362.07l-31.54-13.99,4.01-9.05c17.46-2.87,23.96-4.22,28.55-4.55l.04-.09c-3.45-1.16-9.3-3.8-14.5-6.11l-7.79-3.46,3.12-7.03,31.54,13.99-3.77,8.51c-6.02.87-26.19,4.04-30.6,4.33l-.04.09c3.97,1.44,8.5,3.45,14.1,5.93l9.99,4.43-3.1,6.99Z"/>
          <path class="cls-4" d="M479.16,286.85c5.52,2.99,9.83,9.01,7.21,19.52-2.98,11.98-12.68,15.68-21.81,13.41-9.18-2.28-15.92-10.68-12.98-22.51,2.55-10.27,9.53-13.94,15.34-13.55l-2.05,8.23c-2.08.24-5.62,1.28-7.04,6.98-1.56,6.28,2.44,10.7,8.52,12.22,6.18,1.54,12.19-.1,13.84-6.71,1.18-4.75-.15-7.31-3.05-9.44l2.02-8.13Z"/>
          <path class="cls-4" d="M478.54,254.24l-1.73,19.18,7.81.71,1.93-21.32,6.6,1.58-2.59,28.69-34.35-3.11,2.58-28.55,6.69.61-1.83,20.2,6.49.59,1.73-19.18,6.69.6Z"/>
          <path class="cls-4" d="M482.52,241.58c2.92-1.16,4.74-3.62,4.39-9.35-.33-5.38-2.08-6.79-4.28-6.66-2.4.14-3.62,1.79-4.41,9.1-1.33,12.11-5.06,14.49-9.71,14.77-6.9.42-10.77-5.97-11.26-14.14-.71-11.79,5.16-15.38,9.14-16.01l.51,8.36c-1.68.59-3.91,1.91-3.57,7.58.24,3.96,1.63,5.89,3.88,5.75,1.96-.12,2.9-1.6,3.63-8.12,1.56-13.2,5.39-15.49,10.38-15.8,5.97-.36,11.09,4.04,11.79,15.58.65,10.76-3.85,15.89-9.99,17.34l-.51-8.41Z"/>
        </g>
      </g>
      <path class="cls-4" d="M252.66,139.96c-.6,0-1.23-.12-1.87-.36-2.3-.86-3.78-2.52-5.09-3.99-.56-.62-1.08-1.21-1.58-1.63-1.68-1.39-3.53-2.56-5.51-3.49-3.12-1.45-6.54-2.53-9.84-3.58l-.86-.27c-2.65-.85-5.42-1.63-8.24-2.34-.23-.06-.54-.1-.86-.15-1.04-.16-2.31-.36-3.43-1-.51-.29-1-.55-1.46-.8-2.55-1.36-5.18-2.77-6.56-7.37-.45-1.49-.92-5.15,3.75-8.06,1.17-4.5,3.3-6.39,5.02-7.16.96-.86,2.26-1.5,3.89-1.91-.48-.19-.93-.46-1.33-.79-2.84-2.35-2.88-7.08-.14-15.8.89-2.84,2.65-5.37,5.25-7.54.38-3.16.97-5.35,1.74-6.5.21-.32.37-.58.49-.8l.07-.12c.33-.57,1.36-2.35,3.41-2.35.98,0,1.86.41,2.66.86.27.15.62.34,1.06.57.47.24,1.09.63,2.2,1.64.59-.52,1.38-.91,2.3-1.08.31-.06.63-.09.95-.09,1.23,0,2.28.45,2.93,1.19,1.33-.13,2.67-.2,3.98-.2.39,0,.77,0,1.16.02,2.23.07,4.4.56,6.47,1.48l6.54-6.46c.6-.6,1.4-.93,2.25-.93.09,0,.18,0,.27.01.07,0,.14,0,.21,0,1.01,0,1.98.49,2.58,1.3.45.61,4.14,5.95,2.92,15.82,4.23.47,7.21,1.28,7.77,1.44,3.38.79,5.44,2.58,5.67,4.94.35,3.64-3.8,5.49-5.16,6.1-2,.89-3.93,1.61-5.77,2.17.69,3.11.9,5.87.96,7.37.04.06.07.13.11.19,2.99-1.33,7.2-2.89,10.46-2.89.67,0,1.3.07,1.86.19,1.52.35,2.49,1.89,2.15,3.42-.3,1.33-1.44,2.26-2.79,2.26h0c-.22,0-.43-.02-.64-.07-.1-.02-.3-.05-.61-.05-1.4,0-3.47.58-5.54,1.36,2.7.41,5.17,1.11,5.81,1.29,1.5.44,2.38,2.03,1.96,3.54-.33,1.23-1.47,2.1-2.75,2.1-.17,0-.33-.01-.49-.04.9.57,1.48.98,1.55,1.04,1.26.89,1.6,2.67.74,3.96-.54.8-1.42,1.28-2.37,1.28-.58,0-1.15-.18-1.63-.51-1.53-1.07-4.29-2.77-6.49-3.72-1.14,2.33-2.84,3.79-3.89,4.53-3.01,5.02-7.54,6.74-10.02,7.32l-3.63,4.89c1.41,2.05,2.55,4.59,1.78,6.83-.54,1.53-1.81,2.58-3.51,2.9-.28.05-.55.08-.83.08Z"/>
      <g>
        <g>
          <path class="cls-1" d="M244.49,83.51c-2.76-3.23-6.87-7.96-9.92-11.09-.02-.02-.03-.03-.05-.05-2.25-2.31-3.05-2.84-3.29-2.97-.5-.25-.88-.47-1.19-.64-.05-.03-.11-.06-.16-.09-.16.27-.37.63-.66,1.06-.27.41-.83,2.35-1.15,5.83-.44,4.69-.33,11.1,1.28,14.76,4.19-2.09,9.79-4.74,15.14-6.83ZM230.2,71.19c.32-.86,1.05-.54,1.05-.54l1.37,1.75h0l6.43,8.21c.99,1.26.43,3.14-1.07,3.62l-2.81.9c-1.26.41-2.59-.39-2.86-1.71-.83-4.02-2.34-11.61-2.11-12.24Z"/>
          <path class="cls-1" d="M259.64,75.86c.7-2.77,1.74-6.84,1.95-7.17.31-.51.48-.21.48-.21l.29,7.39c.03.87-.52,1.92-1.1,2.14.39.57.75,1.14,1.1,1.73.29,0,.58,0,.87.01,1.44-7.26-.24-11.95-1.17-13.84l-6.29,6.22c1.37,1.02,2.68,2.26,3.89,3.72Z"/>
          <path class="cls-1" d="M267.02,101.03c0-.06-.01-2.22-.46-5.07l-1.83-.54.41,1.78c.16.67-.25,1.35-.91,1.51-.1.02-.19.04-.28.04-.55,0-1.06-.39-1.19-.96l-.33-1.45-.69.83c-.24.29-.59.44-.93.44-.28,0-.56-.1-.79-.3-.52-.45-.58-1.24-.14-1.77l2.25-2.73s.01-.01.02-.02c.02-.02.04-.04.06-.06.03-.03.06-.06.1-.09.02-.02.04-.04.07-.05.05-.04.1-.07.15-.09.02,0,.03-.02.05-.02.06-.03.12-.05.18-.07.01,0,.02,0,.03-.01.01,0,.02,0,.04,0,.05-.01.11-.02.17-.02.02,0,.04,0,.06,0,.07,0,.13,0,.2.02.02,0,.05.01.07.02.03,0,.06.01.09.02l2.62.77c-.19-.77-.4-1.56-.66-2.33,0-.03-.02-.06-.03-.09-1.24-3.68-3.37-7.21-7.06-8.36-1.6.15-3.16.39-4.63.73-1.84.43-4.07,1.13-6.64,2.08-6.18,2.29-12.99,5.56-17.62,7.89-2.32,1.17-3.26,1.68-3.39,1.75-.31.19-.81.48-1.41.74.16,1.79.19,3.5.07,5.11-.25,3.46-1.12,5.95-1.95,7.6,4.54,4.05,11.24,8.59,11.89,9.02,1.23.66,2.52,1.38,4.04,2.27,3.91,2.28,6.83,4.19,9.46,6.18,1.15.87,2.12,1.69,2.96,2.51l5.04-6.78c.21-.28.53-.46.87-.49.23-.02,5.59-.59,8.47-6.01.11-.22.3-.4.51-.51.02-.02,2.57-1.41,3.34-4.37.63-2.42-.05-5.26-2.02-8.45-.12-.2-.19-.43-.19-.67ZM234.01,104.22c-.47.03-.88-.33-.91-.81-.03-.48.32-.9.79-.94,5.74-.41,17.09,2.63,17.57,2.76.46.12.73.6.61,1.07-.1.39-.45.65-.83.65-.07,0-.15,0-.22-.03-.11-.03-11.56-3.1-17.02-2.71ZM237.99,113.41c-.15.12-.33.17-.51.17-.26,0-.52-.12-.69-.35-.28-.39-.2-.94.18-1.23,3.62-2.75,13.79-3.39,14.22-3.42.47-.03.88.34.9.82.03.48-.33.9-.8.93-.1,0-10.08.63-13.3,3.08ZM251.65,113.87c-1.67.5-6.33,2.29-7.76,4.48-.16.25-.44.39-.71.39-.16,0-.33-.05-.47-.15-.39-.27-.5-.81-.24-1.22,2.07-3.17,8.43-5.11,8.7-5.19.45-.14.93.13,1.06.6.13.46-.13.95-.58,1.09ZM255.86,96.94c-.31.61-1.05.85-1.65.52l-2.69-1.45.23,2.88c.06.69-.44,1.29-1.12,1.35-.03,0-.07,0-.1,0-.63,0-1.16-.49-1.22-1.15l-.25-3.12-4.05,2.57c-.2.13-.42.19-.64.19-.41,0-.81-.21-1.04-.59-.36-.59-.18-1.36.4-1.72l5.75-3.65s.03-.02.05-.03c.02,0,.03-.02.05-.03.06-.03.13-.06.19-.08,0,0,.01,0,.02,0,.07-.02.13-.03.2-.04,0,0,.02,0,.03,0,0,0,.01,0,.02,0,.07,0,.14,0,.21,0,.01,0,.03,0,.04,0,.06,0,.11.02.17.04.02,0,.03,0,.05.02.06.02.12.04.17.07l4.66,2.52c.6.32.83,1.08.51,1.69ZM265.7,106.02c-.32,2.74,1.21,3.47,1.3,3.51.43.18.65.68.48,1.13-.17.45-.67.68-1.11.5-.09-.03-1.55-.64-2.17-2.56-.11.3-.25.58-.42.85-1.18,1.81-3.43,2.11-3.52,2.12-.04,0-.07,0-.1,0-.43,0-.8-.33-.85-.77-.06-.48.28-.92.75-.98.02,0,1.57-.23,2.31-1.35.4-.61.49-1.41.29-2.39-2.29-1.12-2.14-1.86-2.06-2.23.2-.98,1.42-1,1.96-1l2.66-.13s.03,0,.05,0c.5,0,1.81,0,2.07,1.03.07.28.27,1.1-1.61,2.27Z"/>
        </g>
        <g>
          <path class="cls-3" d="M251.95,80.99c-.97-.51-1.64-1.54-1.64-2.73,0-1.69,1.34-3.07,2.99-3.07s2.99,1.38,2.99,3.07c0,.74-.26,1.43-.69,1.96.88-.14,1.77-.24,2.68-.32,0,0,.02,0,.02,0,.39-.03.79-.06,1.19-.08-.18-.28-.37-.55-.56-.82-.17-.24-.35-.49-.57-.77-1.58-2.06-3.33-3.68-5.19-4.83-2.06-1.27-4.27-1.95-6.55-2.02-2.95-.09-5.98.2-8.86.82,3.11,3.32,6.82,7.61,9.18,10.39,1.85-.67,3.52-1.2,5.01-1.6Z"/>
          <path class="cls-3" d="M224.81,92.66s.66-.36,2.35-1.22c-1.5-3.39-1.9-8.51-1.72-13.14-1.28,1.33-2.17,2.77-2.66,4.33-2.91,9.27-1.45,10.81-1.28,10.95.35.29,1.39.21,3.27-.9,0,0,.02-.01.03-.02Z"/>
        </g>
        <path class="cls-2" d="M246.61,127.81c-2.55-1.93-5.39-3.79-9.22-6.02-1.52-.89-2.79-1.6-4.01-2.25-.04-.02-.07-.04-.11-.06-.33-.22-8.11-5.45-12.97-9.96,0,0-.01-.01-.02-.02,0,0,0,0,0,0-1.93-1.79-3.12-3.2-3.66-4.38-.48.74-.9,1.75-1.22,3-.08.3-.12.61-.12.9-.02,4.15,7.49,7.42,10.38,8.34.64.2,1.01.9.81,1.57-.16.54-.65.88-1.17.88-.12,0-.24-.02-.36-.06-.12-.04-2.98-.95-5.88-2.63-3.23-1.87-5.2-3.94-5.92-6.17-1.06.72-1.85,1.65-1.53,2.72.84,2.8,2.02,3.43,4.37,4.69.47.25,1.01.54,1.57.86.41.23,1.2.36,1.91.46.45.07.87.14,1.26.23,2.9.73,5.76,1.54,8.5,2.41l.86.27c3.44,1.09,6.99,2.22,10.36,3.79,2.33,1.08,4.5,2.46,6.48,4.1.76.63,1.42,1.37,2.06,2.09,1.06,1.18,2.06,2.3,3.33,2.78.26.1.35.08.35.08.06-.01.1-.02.13-.03.04-.57-.83-2.3-2.11-3.84-1.03-1.24-2.33-2.44-4.09-3.77Z"/>
        <g>
          <path class="cls-5" d="M283.42,99.53c-3.56-.82-10.12,2.09-12.78,3.38-.33-.74-.72-1.49-1.18-2.25-.03-1.23-.21-5.19-1.4-9.35,1.81-.44,4.3-1.22,7.37-2.59,1.8-.8,4.17-2.09,3.99-4.08-.2-2.11-3.2-2.96-4.17-3.19-.45-.13-4.31-1.2-9.57-1.58,1.98-10.58-2.04-16.18-2.23-16.42-.29-.39-.76-.55-1.2-.47-.38-.08-.79.03-1.1.32l-7.55,7.46c-2.19-1.19-4.51-1.83-6.92-1.9-2.13-.06-4.3.06-6.43.35.05-.15.07-.29.04-.44-.12-.68-1.11-1.07-2.21-.87-1.1.21-1.89.93-1.76,1.61.02.14.09.27.18.38-.26.06-.51.13-.77.2-2.13-2.14-2.98-2.7-3.43-2.93-.46-.24-.83-.44-1.12-.6-1.57-.87-2.39-.96-3.38.76-.16.27-.35.6-.62,1.01-.86,1.29-1.32,4.6-1.51,6.44-2.64,2.03-4.4,4.41-5.24,7.09-3.14,10.01-1.78,12.6-.49,13.67.62.52,1.34.71,2.05.71.05,0,.09,0,.14,0,.09,1.12.12,2.21.09,3.25-2.35.29-4.02.96-5,1.99-1.42.52-3.18,2.01-4.21,6.01-.06.24-.11.48-.14.73-4.08,2.19-4.04,4.8-3.62,6.2,1.14,3.8,3.1,4.85,5.58,6.18.48.26.98.52,1.52.83.79.46,1.83.61,2.73.75.39.06.77.12,1.05.19,2.85.72,5.67,1.52,8.35,2.37l.86.27c3.37,1.07,6.85,2.18,10.08,3.67,2.13.99,4.14,2.26,5.94,3.76.62.51,1.19,1.15,1.8,1.84,1.21,1.36,2.46,2.76,4.3,3.44.42.16.8.23,1.17.23.16,0,.31-.02.46-.04,1.33-.25,1.82-1.1,1.99-1.59.7-2.03-1.46-5.02-2.38-6.17l4.98-6.7c1.68-.29,6.68-1.59,9.67-6.92.91-.57,3.32-2.37,4.21-5.66,2.8.7,7.17,3.47,8.81,4.62.15.1.32.15.48.15.27,0,.54-.14.71-.38.27-.4.17-.94-.22-1.22-.26-.18-5.73-3.98-9.48-4.89.03-.39.04-.79.03-1.19,2.73-.25,7.49.9,9.31,1.43.08.02.16.03.23.03.37,0,.72-.25.82-.64.13-.47-.13-.95-.59-1.08-.72-.21-6.4-1.82-9.98-1.48-.11-.55-.25-1.11-.44-1.68,3.03-1.48,8.95-3.95,11.78-3.3.46.11.92-.19,1.02-.66.1-.47-.19-.94-.65-1.05ZM262.04,65.92c.93,1.89,2.61,6.58,1.17,13.84-.29,0-.58-.01-.87-.01-.34-.59-.71-1.17-1.1-1.73.58-.22,1.14-1.27,1.1-2.14l-.29-7.39s-.17-.3-.48.21c-.2.33-1.25,4.4-1.95,7.17-1.22-1.46-2.52-2.7-3.89-3.72l6.29-6.22ZM246.62,71.37c2.29.07,4.49.75,6.55,2.02,1.86,1.15,3.61,2.77,5.19,4.83.21.28.4.54.57.77.19.27.38.54.56.82-.4.02-.79.05-1.19.08,0,0-.02,0-.02,0-.91.08-1.8.19-2.68.32.43-.53.69-1.21.69-1.96,0-1.69-1.34-3.07-2.99-3.07s-2.99,1.38-2.99,3.07c0,1.19.67,2.22,1.64,2.73-1.48.4-3.16.93-5.01,1.6-2.36-2.78-6.07-7.07-9.18-10.39,2.88-.63,5.9-.91,8.86-.82ZM228.07,75.58c.33-3.47.88-5.42,1.15-5.83.29-.43.5-.79.66-1.06.05.03.11.06.16.09.31.17.69.39,1.19.64.24.12,1.04.65,3.29,2.97.02.02.03.03.05.05,3.05,3.12,7.16,7.86,9.92,11.09-5.35,2.09-10.95,4.74-15.14,6.83-1.61-3.67-1.72-10.08-1.28-14.76ZM221.5,93.58c-.17-.15-1.63-1.69,1.28-10.95.49-1.55,1.38-3,2.66-4.33-.18,4.63.22,9.75,1.72,13.14-1.68.86-2.32,1.2-2.35,1.22-.01,0-.02.01-.03.02-1.88,1.1-2.92,1.19-3.27.9ZM252.81,135.42s-.07.02-.13.03c0,0-.09.02-.35-.08-1.27-.47-2.27-1.59-3.33-2.78-.64-.72-1.31-1.47-2.06-2.09-1.97-1.64-4.15-3.02-6.48-4.1-3.37-1.56-6.93-2.69-10.36-3.79l-.86-.27c-2.74-.87-5.6-1.68-8.5-2.41-.39-.1-.82-.16-1.26-.23-.7-.11-1.5-.23-1.91-.46-.56-.32-1.1-.61-1.57-.86-2.36-1.26-3.54-1.89-4.37-4.69-.32-1.08.47-2,1.53-2.72.72,2.22,2.69,4.29,5.92,6.17,2.9,1.68,5.76,2.59,5.88,2.63.12.04.24.06.36.06.52,0,1.01-.35,1.17-.88.2-.66-.17-1.36-.81-1.57-2.9-.91-10.41-4.19-10.38-8.34,0-.3.04-.6.12-.9.32-1.25.74-2.27,1.22-3,.54,1.18,1.73,2.58,3.66,4.38,0,0,0,0,0,0,0,0,.01.01.02.02,4.86,4.51,12.64,9.74,12.97,9.96.03.02.07.04.11.06,1.22.65,2.49,1.36,4.01,2.25,3.82,2.23,6.66,4.09,9.22,6.02,1.76,1.33,3.05,2.53,4.09,3.77,1.28,1.54,2.15,3.27,2.11,3.84ZM269.24,110.15c-.77,2.96-3.31,4.36-3.34,4.37-.22.12-.4.3-.51.51-2.88,5.42-8.24,5.98-8.47,6.01-.34.03-.66.21-.87.49l-5.04,6.78c-.84-.82-1.81-1.64-2.96-2.51-2.63-1.99-5.55-3.9-9.46-6.18-1.52-.89-2.81-1.61-4.04-2.27-.65-.43-7.34-4.97-11.89-9.02.83-1.65,1.7-4.14,1.95-7.6.12-1.6.09-3.32-.07-5.11.6-.27,1.1-.56,1.41-.74.13-.07,1.08-.58,3.39-1.75,4.62-2.33,11.43-5.6,17.62-7.89,2.57-.95,4.81-1.66,6.64-2.08,1.47-.34,3.03-.59,4.63-.73,3.69,1.15,5.83,4.68,7.06,8.36,0,.03.02.06.03.09.26.78.48,1.57.66,2.33l-2.62-.77s-.06-.01-.09-.02c-.02,0-.05-.01-.07-.02-.07-.01-.13-.02-.2-.02-.02,0-.04,0-.06,0-.06,0-.11.01-.17.02-.01,0-.02,0-.04,0-.01,0-.02,0-.03.01-.06.02-.12.04-.18.07-.02,0-.03.02-.05.02-.05.03-.11.06-.15.09-.02.02-.04.04-.07.05-.03.03-.07.06-.1.09-.02.02-.04.04-.06.06,0,0-.01.01-.02.02l-2.25,2.73c-.44.53-.37,1.32.14,1.77.23.2.51.3.79.3.35,0,.69-.15.93-.44l.69-.83.33,1.45c.13.58.64.96,1.19.96.09,0,.19-.01.28-.04.66-.16,1.06-.83.91-1.51l-.41-1.78,1.83.54c.45,2.85.46,5.01.46,5.07,0,.24.07.47.19.67,1.97,3.18,2.66,6.02,2.02,8.45Z"/>
          <path class="cls-5" d="M235.17,85.14l2.81-.9c1.5-.49,2.06-2.36,1.07-3.62l-6.43-8.21h0l-1.37-1.75s-.73-.32-1.05.54c-.23.63,1.28,8.21,2.11,12.24.27,1.33,1.6,2.12,2.86,1.71Z"/>
          <path class="cls-5" d="M251.24,106.96c.38,0,.73-.26.83-.65.12-.47-.15-.95-.61-1.07-.48-.13-11.83-3.17-17.57-2.76-.47.03-.83.45-.79.94.03.48.44.85.91.81,5.46-.39,16.9,2.68,17.02,2.71.07.02.15.03.22.03Z"/>
          <path class="cls-5" d="M252.09,109.4c-.03-.48-.44-.85-.9-.82-.43.03-10.59.67-14.22,3.42-.38.29-.46.84-.18,1.23.17.23.43.35.69.35.18,0,.36-.06.51-.17,3.21-2.44,13.2-3.07,13.3-3.08.47-.03.83-.44.8-.93Z"/>
          <path class="cls-5" d="M251.17,112.18c-.27.08-6.64,2.02-8.7,5.19-.26.4-.16.95.24,1.22.15.1.31.15.47.15.28,0,.55-.14.71-.39,1.43-2.19,6.09-3.98,7.76-4.48.45-.14.71-.62.58-1.09-.13-.46-.61-.73-1.06-.6Z"/>
          <path class="cls-5" d="M255.35,95.25l-4.66-2.52c-.06-.03-.11-.05-.17-.07-.02,0-.03-.01-.05-.02-.06-.02-.11-.03-.17-.04-.01,0-.03,0-.04,0-.07,0-.14,0-.21,0,0,0-.01,0-.02,0,0,0-.02,0-.03,0-.07,0-.13.02-.2.04,0,0-.01,0-.02,0-.07.02-.13.05-.19.08-.02,0-.04.02-.05.03-.02,0-.03.02-.05.03l-5.75,3.65c-.57.36-.75,1.14-.4,1.72.23.38.63.59,1.04.59.22,0,.44-.06.64-.19l4.05-2.57.25,3.12c.05.65.59,1.15,1.22,1.15.03,0,.07,0,.1,0,.67-.06,1.17-.66,1.12-1.35l-.23-2.88,2.69,1.45c.6.32,1.34.09,1.65-.52.31-.61.09-1.37-.51-1.69Z"/>
          <path class="cls-5" d="M265.25,102.73s-.03,0-.05,0l-2.66.13c-.54,0-1.76.02-1.96,1-.08.37-.23,1.11,2.06,2.23.2.98.11,1.78-.29,2.39-.73,1.12-2.29,1.35-2.31,1.35-.47.06-.8.5-.75.98.05.44.42.77.85.77.03,0,.07,0,.1,0,.1-.01,2.35-.31,3.52-2.12.17-.27.32-.55.42-.85.61,1.91,2.08,2.52,2.17,2.56.44.17.94-.05,1.11-.5.17-.45-.04-.95-.48-1.13-.09-.04-1.62-.77-1.3-3.51,1.89-1.16,1.68-1.98,1.61-2.27-.25-1.02-1.57-1.03-2.07-1.03Z"/>
        </g>
      </g>
      <g>
        <g>
          <path class="cls-4" d="M169.36,398.72c-13.83,0-22.77-9.1-22.77-23.18s9.79-23.41,23.81-23.41c15.69,0,19.86,9.61,20.92,13.75.15.58.02,1.19-.34,1.66-.36.47-.93.75-1.52.75h-6.01c-.79,0-1.49-.48-1.79-1.21-1.7-4.22-5.51-6.36-11.32-6.36-10.16,0-13.78,7.48-13.78,14.48,0,9.18,5.24,14.88,13.67,14.88,7.35,0,11.2-3.29,11.46-9.78h-11.34c-1.06,0-1.92-.86-1.92-1.92v-4.91c0-1.06.86-1.92,1.92-1.92h18.88c1.06,0,1.92.86,1.92,1.92v22.46c0,1.06-.86,1.92-1.92,1.92h-4.45c-.94,0-1.74-.68-1.9-1.61-.06-.34-.12-.87-.19-1.5-3.2,2.72-7.49,3.98-13.33,3.98Z"/>
          <path class="cls-4" d="M189.22,395.93h-4.45c-.17-1.04-.46-4.27-.46-6.06-2.71,4.39-6.93,6.93-14.96,6.93-12.94,0-20.85-8.49-20.85-21.25,0-12.07,8.2-21.48,21.89-21.48,12.24,0,17.5,6.24,19.06,12.3h-6.01c-1.56-3.87-5.14-7.56-13.11-7.56-10.28,0-15.71,7.22-15.71,16.4,0,9.7,5.49,16.8,15.59,16.8,8.55,0,13.4-4.33,13.4-12.42v-1.21h-13.28v-4.91h18.88v22.46Z"/>
          <path class="cls-4" d="M212.15,398.66c-11.39,0-17.34-8.72-17.34-17.34,0-10.05,7.42-17.34,17.63-17.34,11.42,0,17.4,8.72,17.4,17.34,0,4.66-1.58,8.94-4.45,12.05-3.2,3.46-7.78,5.3-13.24,5.3ZM212.21,372.33c-5.82,0-7.89,4.64-7.89,8.99s2.51,8.99,8.01,8.99c7.43,0,8.01-6.84,8.01-8.93,0-4.5-2.51-9.05-8.12-9.05Z"/>
          <path class="cls-4" d="M227.92,381.32c0,8.08-5.25,15.42-15.76,15.42-9.87,0-15.42-7.33-15.42-15.42s5.89-15.42,15.71-15.42,15.48,7.68,15.48,15.42ZM202.39,381.32c0,5.6,3.52,10.91,9.93,10.91s9.93-4.97,9.93-10.86-3.52-10.97-10.05-10.97-9.82,5.08-9.82,10.91Z"/>
          <path class="cls-4" d="M256.9,397.85c-1.06,0-1.92-.86-1.92-1.92v-16.8c0-5.92-2.86-6.68-5.35-6.68-6.21,0-7.14,5.92-7.14,9.45v14.03c0,1.06-.86,1.92-1.92,1.92h-5.49c-1.06,0-1.92-.86-1.92-1.92v-21.83c0-2.42,0-5.17-.06-7.34-.01-.52.18-1.02.55-1.39.36-.37.86-.58,1.38-.58h5.31c.98,0,1.8.73,1.91,1.7.01.11.02.23.04.36,1.94-1.57,4.77-2.86,8.85-2.86,8.17,0,13.24,5.43,13.24,14.17v17.79c0,1.06-.86,1.92-1.92,1.92h-5.54Z"/>
          <path class="cls-4" d="M235.08,374.1c0-2.48,0-5.2-.06-7.39h5.31c.12.98.23,3.41.23,5.43,1.27-2.83,4.33-6.24,10.57-6.24,6.87,0,11.32,4.22,11.32,12.24v17.79h-5.54v-16.8c0-4.79-1.79-8.6-7.28-8.6-6.06,0-9.07,4.62-9.07,11.38v14.03h-5.49v-21.83Z"/>
          <path class="cls-4" d="M268.98,397.85c-1.06,0-1.92-.86-1.92-1.92v-4.1c0-.5.2-.99.55-1.35l17.06-17.4h-14.59c-1.06,0-1.92-.86-1.92-1.92v-4.45c0-1.06.86-1.92,1.92-1.92h26.22c1.06,0,1.92.86,1.92,1.92v4.22c0,.5-.2.99-.55,1.35l-16.84,17.23h16.79c.57,0,1.12.26,1.48.7.37.44.51,1.03.41,1.59l-.87,4.5c-.17.91-.97,1.56-1.89,1.56h-27.78Z"/>
          <path class="cls-4" d="M268.98,391.83l20.27-20.67h-19.17v-4.45h26.22v4.22l-20.04,20.5h21.37l-.87,4.5h-27.78v-4.1Z"/>
          <path class="cls-4" d="M303.47,397.85c-1.06,0-1.92-.86-1.92-1.92v-4.1c0-.5.2-.99.55-1.35l17.06-17.4h-14.59c-1.06,0-1.92-.86-1.92-1.92v-4.45c0-1.06.86-1.92,1.92-1.92h26.22c1.06,0,1.92.86,1.92,1.92v4.22c0,.5-.2.99-.55,1.35l-16.84,17.23h16.79c.57,0,1.12.26,1.48.7.37.44.51,1.03.41,1.59l-.87,4.5c-.17.91-.97,1.56-1.89,1.56h-27.78Z"/>
          <path class="cls-4" d="M303.47,391.83l20.27-20.67h-19.17v-4.45h26.22v4.22l-20.04,20.5h21.37l-.87,4.5h-27.78v-4.1Z"/>
        </g>
        <circle class="cls-4" cx="342.52" cy="393.79" r="4.07"/>
      </g>
      <g>
        <path class="cls-4" d="M155.8,186.79c-.67,3.13-3.17,5.35-7.92,5.35-5.48,0-8.23-3.51-8.23-7.73s2.71-7.71,8.42-7.71c5.02,0,7.37,2.6,7.75,5.27h-4.83c-.21-.8-.82-2.02-2.94-2.02-2.25,0-3.34,1.76-3.34,4.35,0,2.35.88,4.54,3.36,4.54,1.78,0,2.52-.8,2.94-2.06h4.79Z"/>
        <path class="cls-4" d="M161.52,186.37v5.44h-4.72v-14.76h8.95c3.65,0,5.58,1.79,5.58,4.24,0,1.89-1.11,3.02-2.56,3.53.8.34,2.16,1.05,2.16,3.55v.8c0,.84,0,1.93.21,2.64h-4.79c-.23-.63-.29-1.53-.29-3.06v-.48c0-1.39-.44-1.89-2.31-1.89h-2.23ZM161.52,183.31h2.94c1.3,0,2.04-.48,2.04-1.53,0-.99-.67-1.55-2.04-1.55h-2.94v3.09Z"/>
        <path class="cls-4" d="M177.23,189.06l-.95,2.75h-4.81l5.59-14.76h6.26l5.94,14.76h-5.14l-1.01-2.75h-5.88ZM181.99,185.64c-.97-2.67-1.53-4.35-1.89-5.56h-.08c-.32,1.22-.97,3.32-1.76,5.56h3.74Z"/>
        <path class="cls-4" d="M189.7,177.05h12.87v3.4h-8.1v2.64h7.58v3.42h-7.58v5.29h-4.77v-14.76Z"/>
        <path class="cls-4" d="M207.86,180.45h-4.89v-3.4h14.53v3.4h-4.85v11.36h-4.79v-11.36Z"/>
        <path class="cls-4" d="M223.24,177.05v14.76h-4.79v-14.76h4.79Z"/>
        <path class="cls-4" d="M225.57,191.81v-14.76h5.58c3.28,5.29,4.37,7.2,5.33,9.11h.08c-.15-1.41-.13-4.07-.13-6.51v-2.6h4.3v14.76h-5.27c-1.16-2.06-4.79-8.33-5.67-10.14h-.06c.13,1.68.15,3.65.15,6.55v3.59h-4.32Z"/>
        <path class="cls-4" d="M258.34,191.81h-3.3c-.1-.31-.21-.84-.29-1.34-.95,1.05-2.18,1.68-4.89,1.68-4.87,0-7.56-3.28-7.56-7.58s2.67-7.85,8.48-7.85c4.68,0,7.14,2.37,7.58,4.85h-4.81c-.23-.69-.86-1.7-2.79-1.7-2.5,0-3.4,2.06-3.4,4.45,0,2.6,1.03,4.6,3.51,4.6,2.1,0,2.86-1.2,2.86-2.33v-.15h-2.9v-3.23h7.52v8.61Z"/>
        <path class="cls-4" d="M269.18,177.05v8.54c0,2.35,1.13,3.13,2.71,3.13,1.66,0,2.54-.86,2.54-3.13v-8.54h4.81v8.57c0,4.28-2.39,6.53-7.47,6.53s-7.39-2.12-7.39-6.53v-8.57h4.81Z"/>
        <path class="cls-4" d="M281.36,191.81v-14.76h5.59c3.28,5.29,4.37,7.2,5.33,9.11h.08c-.15-1.41-.12-4.07-.12-6.51v-2.6h4.3v14.76h-5.27c-1.15-2.06-4.79-8.33-5.67-10.14h-.06c.13,1.68.15,3.65.15,6.55v3.59h-4.33Z"/>
        <path class="cls-4" d="M303.66,177.05v14.76h-4.79v-14.76h4.79Z"/>
        <path class="cls-4" d="M322.06,184.4c0,2.25-.8,4.32-2.46,5.75l3.32,2.21-2.39,2.75-4.77-3.17c-.69.15-1.45.21-2.27.21-5.33,0-8.27-3.4-8.27-7.73,0-4.07,2.86-7.71,8.48-7.71,5.33,0,8.36,3.49,8.36,7.69ZM310.28,184.34c0,2.58,1.03,4.47,3.44,4.47s3.28-2.16,3.28-4.39c0-2.56-.9-4.45-3.4-4.45s-3.32,1.95-3.32,4.37Z"/>
        <path class="cls-4" d="M328.11,177.05v8.54c0,2.35,1.13,3.13,2.71,3.13,1.66,0,2.54-.86,2.54-3.13v-8.54h4.81v8.57c0,4.28-2.39,6.53-7.47,6.53s-7.39-2.12-7.39-6.53v-8.57h4.81Z"/>
        <path class="cls-4" d="M352.91,185.93h-7.89v2.48h8.82l-.55,3.4h-13v-14.76h13.04v3.4h-8.31v2.06h7.89v3.42Z"/>
        <path class="cls-4" d="M124.73,198.05h9.09c3.78,0,5.35,1.79,5.35,3.82,0,1.72-1.05,2.73-2.29,3.15,1.47.46,2.86,1.55,2.86,3.42,0,2.56-1.89,4.37-6.03,4.37h-8.99v-14.76ZM132.64,203.72c1.32,0,1.72-.59,1.72-1.3,0-.88-.65-1.3-1.72-1.3h-3.25v2.6h3.25ZM129.39,209.77h3.32c1.28,0,2.02-.46,2.02-1.55,0-.9-.59-1.47-1.91-1.47h-3.42v3.02Z"/>
        <path class="cls-4" d="M145.81,207.37v5.44h-4.72v-14.76h8.95c3.65,0,5.58,1.79,5.58,4.24,0,1.89-1.11,3.02-2.56,3.53.8.34,2.16,1.05,2.16,3.55v.8c0,.84,0,1.93.21,2.64h-4.79c-.23-.63-.29-1.53-.29-3.06v-.48c0-1.39-.44-1.89-2.31-1.89h-2.23ZM145.81,204.31h2.94c1.3,0,2.04-.48,2.04-1.53,0-.99-.67-1.55-2.04-1.55h-2.94v3.09Z"/>
        <path class="cls-4" d="M161.52,210.06l-.94,2.75h-4.81l5.58-14.76h6.26l5.94,14.76h-5.14l-1.01-2.75h-5.88ZM166.28,206.64c-.97-2.67-1.53-4.35-1.89-5.56h-.08c-.31,1.22-.97,3.32-1.76,5.56h3.74Z"/>
        <path class="cls-4" d="M173.99,212.81v-14.76h5.59c3.28,5.29,4.37,7.2,5.33,9.11h.08c-.15-1.41-.12-4.07-.12-6.51v-2.6h4.3v14.76h-5.27c-1.15-2.06-4.79-8.33-5.67-10.14h-.06c.13,1.68.15,3.65.15,6.55v3.59h-4.33Z"/>
        <path class="cls-4" d="M191.5,198.05h7.47c5.33,0,8.02,3.25,8.02,7.14,0,4.56-3.34,7.62-8.06,7.62h-7.43v-14.76ZM196.29,209.49h2.08c2.37,0,3.57-1.43,3.57-4.2,0-2.27-.95-3.93-3.57-3.95h-2.08v8.15Z"/>
        <path class="cls-4" d="M212.15,208.36c.31.99,1.07,1.72,3,1.72,1.7,0,2.23-.53,2.23-1.26,0-.78-.46-1.24-3.23-1.72-5.46-.94-6.24-2.81-6.24-4.77,0-2.92,2.75-4.62,6.78-4.62,4.91,0,6.87,2.27,7.05,4.45h-4.66c-.17-.65-.57-1.41-2.41-1.41-1.3,0-1.91.42-1.91,1.11s.61,1.01,2.92,1.43c5.56.99,6.66,2.75,6.66,4.97,0,2.81-2.37,4.85-7.39,4.85s-7.16-2.1-7.6-4.77h4.81Z"/>
        <path class="cls-4" d="M245.22,203.45l-4.56,5.23,4.85,4.13h-6l-1.6-1.32c-1.28,1.01-2.75,1.62-4.96,1.62-3.99,0-5.75-2.16-5.75-4.45,0-1.66.86-2.71,2.92-3.8-1.01-.92-1.34-1.97-1.34-2.98,0-2.04,1.64-4.07,5.25-4.07s5.17,1.95,5.17,3.82c0,1.74-1.28,2.58-2.88,3.34l1.78,1.53,2.46-3.04h4.66ZM235.39,209.39l-3.21-2.69c-.48.34-.76.88-.76,1.45,0,1.01.76,1.8,2.12,1.8.69,0,1.26-.17,1.85-.57ZM232.98,201.54c0,.54.36,1.09,1.18,1.68.88-.46,1.22-1.05,1.22-1.6,0-.69-.44-1.26-1.26-1.26-.73,0-1.13.57-1.13,1.18Z"/>
        <path class="cls-4" d="M253.16,212.81l-4.03-14.76h5.02c.65,3.25,1.64,7.62,1.99,10.6h.04c.55-3,1.6-7.33,2.44-10.6h4.3c.82,3.15,1.89,7.58,2.44,10.48h.04c.42-3.13,1.38-7.47,2.02-10.48h4.74l-4.28,14.76h-5.02c-.82-3.11-1.79-7.18-2.37-9.89h-.04c-.48,2.69-1.45,6.57-2.29,9.89h-5Z"/>
        <path class="cls-4" d="M285.5,206.93h-7.89v2.48h8.82l-.55,3.4h-13v-14.76h13.04v3.4h-8.31v2.06h7.89v3.42Z"/>
        <path class="cls-4" d="M287.58,198.05h9.09c3.78,0,5.35,1.79,5.35,3.82,0,1.72-1.05,2.73-2.29,3.15,1.47.46,2.86,1.55,2.86,3.42,0,2.56-1.89,4.37-6.03,4.37h-8.99v-14.76ZM295.49,203.72c1.32,0,1.72-.59,1.72-1.3,0-.88-.65-1.3-1.72-1.3h-3.25v2.6h3.25ZM292.24,209.77h3.32c1.28,0,2.02-.46,2.02-1.55,0-.9-.59-1.47-1.91-1.47h-3.42v3.02Z"/>
        <path class="cls-4" d="M307.82,208.36c.32.99,1.07,1.72,3,1.72,1.7,0,2.22-.53,2.22-1.26,0-.78-.46-1.24-3.23-1.72-5.46-.94-6.24-2.81-6.24-4.77,0-2.92,2.75-4.62,6.78-4.62,4.91,0,6.87,2.27,7.05,4.45h-4.66c-.17-.65-.57-1.41-2.42-1.41-1.3,0-1.91.42-1.91,1.11s.61,1.01,2.92,1.43c5.56.99,6.66,2.75,6.66,4.97,0,2.81-2.37,4.85-7.39,4.85s-7.16-2.1-7.6-4.77h4.81Z"/>
        <path class="cls-4" d="M324.16,198.05v14.76h-4.79v-14.76h4.79Z"/>
        <path class="cls-4" d="M329.96,201.45h-4.89v-3.4h14.53v3.4h-4.85v11.36h-4.79v-11.36Z"/>
        <path class="cls-4" d="M353.16,206.93h-7.89v2.48h8.82l-.55,3.4h-13v-14.76h13.04v3.4h-8.31v2.06h7.89v3.42Z"/>
        <path class="cls-4" d="M359.1,208.36c.31.99,1.07,1.72,3,1.72,1.7,0,2.23-.53,2.23-1.26,0-.78-.46-1.24-3.23-1.72-5.46-.94-6.24-2.81-6.24-4.77,0-2.92,2.75-4.62,6.78-4.62,4.91,0,6.87,2.27,7.05,4.45h-4.66c-.17-.65-.57-1.41-2.41-1.41-1.3,0-1.91.42-1.91,1.11s.61,1.01,2.92,1.43c5.56.99,6.66,2.75,6.66,4.97,0,2.81-2.37,4.85-7.39,4.85s-7.16-2.1-7.6-4.77h4.81Z"/>
        <path class="cls-4" d="M158.42,219.05h12.87v3.4h-8.1v2.64h7.58v3.42h-7.58v5.29h-4.77v-14.76Z"/>
        <path class="cls-4" d="M177.15,228.37v5.44h-4.72v-14.76h8.95c3.65,0,5.58,1.79,5.58,4.24,0,1.89-1.11,3.02-2.56,3.53.8.34,2.16,1.05,2.16,3.55v.8c0,.84,0,1.93.21,2.64h-4.79c-.23-.63-.29-1.53-.29-3.06v-.48c0-1.39-.44-1.89-2.31-1.89h-2.23ZM177.15,225.31h2.94c1.3,0,2.04-.48,2.04-1.53,0-.99-.67-1.55-2.04-1.55h-2.94v3.09Z"/>
        <path class="cls-4" d="M204.41,226.4c0,4.16-2.77,7.75-8.57,7.75-5.33,0-8.27-3.4-8.27-7.73,0-4.07,2.86-7.71,8.48-7.71,5.33,0,8.36,3.49,8.36,7.69ZM192.63,226.34c0,2.58,1.03,4.47,3.44,4.47s3.28-2.16,3.28-4.39c0-2.56-.9-4.45-3.4-4.45s-3.32,1.95-3.32,4.37Z"/>
        <path class="cls-4" d="M219.74,228.84c0-2.35.06-5.19.17-6.91h-.04c-.71,2.86-1.66,6.66-3.15,11.88h-3.93c-1.18-4.85-2.12-8.94-2.86-11.93h-.04c.11,1.72.27,4.58.27,7.12v4.81h-4.28v-14.76h6.87c.95,3.32,1.89,6.95,2.31,9.43h.02c.57-2.6,1.51-6.05,2.5-9.43h6.84v14.76h-4.68v-4.97Z"/>
        <path class="cls-4" d="M234.38,222.45h-4.89v-3.4h14.53v3.4h-4.85v11.36h-4.79v-11.36Z"/>
        <path class="cls-4" d="M244.96,219.05h4.79v5.33h5.33v-5.33h4.81v14.76h-4.81v-6.03h-5.33v6.03h-4.79v-14.76Z"/>
        <path class="cls-4" d="M274.82,227.93h-7.89v2.48h8.82l-.55,3.4h-13v-14.76h13.04v3.4h-8.31v2.06h7.89v3.42Z"/>
        <path class="cls-4" d="M285.99,219.05v14.76h-4.79v-14.76h4.79Z"/>
        <path class="cls-4" d="M288.32,219.05h7.47c5.33,0,8.02,3.25,8.02,7.14,0,4.56-3.34,7.62-8.06,7.62h-7.43v-14.76ZM293.11,230.49h2.08c2.37,0,3.57-1.43,3.57-4.2,0-2.27-.94-3.93-3.57-3.95h-2.08v8.15Z"/>
        <path class="cls-4" d="M317.91,227.93h-7.89v2.48h8.82l-.55,3.4h-13v-14.76h13.04v3.4h-8.31v2.06h7.89v3.42Z"/>
        <path class="cls-4" d="M324.61,231.06l-.95,2.75h-4.81l5.59-14.76h6.26l5.94,14.76h-5.14l-1.01-2.75h-5.88ZM329.38,227.64c-.97-2.67-1.53-4.35-1.89-5.56h-.08c-.32,1.22-.97,3.32-1.76,5.56h3.74Z"/>
        <path class="cls-4" d="M184.22,243.45h-4.89v-3.4h14.53v3.4h-4.85v11.36h-4.79v-11.36Z"/>
        <path class="cls-4" d="M210.59,247.4c0,4.16-2.77,7.75-8.57,7.75-5.33,0-8.27-3.4-8.27-7.73,0-4.07,2.86-7.71,8.48-7.71,5.33,0,8.36,3.49,8.36,7.69ZM198.81,247.34c0,2.58,1.03,4.47,3.44,4.47s3.28-2.16,3.28-4.39c0-2.56-.9-4.45-3.4-4.45s-3.32,1.95-3.32,4.37Z"/>
        <path class="cls-4" d="M221.09,249.37v5.44h-4.72v-14.76h8.94c3.65,0,5.59,1.79,5.59,4.24,0,1.89-1.11,3.02-2.56,3.53.8.34,2.16,1.05,2.16,3.55v.8c0,.84,0,1.93.21,2.64h-4.79c-.23-.63-.29-1.53-.29-3.06v-.48c0-1.39-.44-1.89-2.31-1.89h-2.23ZM221.09,246.31h2.94c1.3,0,2.04-.48,2.04-1.53,0-.99-.67-1.55-2.04-1.55h-2.94v3.09Z"/>
        <path class="cls-4" d="M244.99,248.93h-7.89v2.48h8.82l-.55,3.4h-13v-14.76h13.04v3.4h-8.31v2.06h7.89v3.42Z"/>
        <path class="cls-4" d="M251.69,252.06l-.95,2.75h-4.81l5.59-14.76h6.26l5.94,14.76h-5.14l-1.01-2.75h-5.88ZM256.46,248.64c-.97-2.67-1.53-4.35-1.89-5.56h-.08c-.32,1.22-.97,3.32-1.76,5.56h3.74Z"/>
        <path class="cls-4" d="M264.16,240.05h4.81v11.34h7.92l-.57,3.42h-12.16v-14.76Z"/>
        <path class="cls-4" d="M282.26,240.05v14.76h-4.79v-14.76h4.79Z"/>
        <path class="cls-4" d="M288.06,243.45h-4.89v-3.4h14.53v3.4h-4.85v11.36h-4.79v-11.36Z"/>
        <path class="cls-4" d="M303.79,254.81v-5.12c0-.23-.06-.36-.21-.57l-5.94-9.07h5.63c1.2,2.12,2.44,4.35,3.15,5.92.71-1.51,2.02-3.7,3.21-5.92h5.17l-6.07,9.22c-.08.13-.1.25-.1.5v5.04h-4.83Z"/>
      </g>
      <path class="cls-4" d="M337.75,309.66h-182.33c-1.38,0-2.5-1.12-2.5-2.5s1.12-2.5,2.5-2.5h182.33c1.38,0,2.5,1.12,2.5,2.5s-1.12,2.5-2.5,2.5Z"/>
    </g>
  </g>
</svg>