<?xml version="1.0" encoding="UTF-8"?>
<svg id="Layer_2" data-name="Layer 2" xmlns="http://www.w3.org/2000/svg" viewBox="0 0 500 500">
  <defs>
    <style>
      .cls-1 {
        fill: #6c3f99;
      }

      .cls-1, .cls-2, .cls-3, .cls-4 {
        stroke-width: 0px;
      }

      .cls-2 {
        fill: #f93;
      }

      .cls-3 {
        fill: #e8e4ea;
      }

      .cls-4 {
        fill: #0f0c11;
      }
    </style>
  </defs>
  <g id="Layer_4" data-name="Layer 4">
    <g>
      <path class="cls-3" d="M256.1,142.01c-.61,0-1.24-.12-1.89-.36-2.33-.87-3.83-2.55-5.15-4.04-.58-.64-1.1-1.23-1.6-1.65-1.7-1.41-3.57-2.6-5.57-3.53-3.17-1.47-6.62-2.57-9.95-3.63l-.87-.28c-2.7-.86-5.5-1.66-8.33-2.37-.23-.06-.55-.1-.87-.15-1.05-.16-2.34-.36-3.47-1.01-.51-.29-.99-.54-1.45-.79-2.6-1.39-5.26-2.82-6.65-7.48-.45-1.51-.93-5.21,3.79-8.16,1.18-4.56,3.33-6.47,5.08-7.25.97-.87,2.28-1.52,3.93-1.93-.49-.2-.94-.46-1.35-.8-2.87-2.38-2.91-7.17-.14-16,.9-2.87,2.68-5.43,5.31-7.63.58-4.82,1.46-6.14,1.76-6.58.22-.33.38-.6.51-.82l.06-.1c.33-.58,1.37-2.38,3.45-2.38.99,0,1.88.42,2.69.87.28.16.63.35,1.07.57.47.24,1.1.64,2.23,1.66.59-.53,1.39-.92,2.33-1.1.32-.06.64-.09.96-.09,1.25,0,2.3.45,2.96,1.2,1.35-.13,2.7-.2,4.03-.2.39,0,.78,0,1.16.02,2.26.07,4.45.57,6.54,1.5l6.61-6.54c.61-.6,1.42-.94,2.28-.94.09,0,.18,0,.27.01.07,0,.14,0,.22,0,1.02,0,2,.49,2.61,1.32.18.24,4.2,5.79,2.95,16.01,4.27.48,7.29,1.3,7.86,1.46,3.42.79,5.5,2.61,5.73,5,.35,3.69-3.84,5.56-5.22,6.17-2.02.9-3.97,1.63-5.83,2.2.7,3.14.91,5.94.97,7.46.04.06.07.13.11.19,3.03-1.35,7.29-2.93,10.58-2.93.68,0,1.31.07,1.88.2,1.54.36,2.51,1.91,2.18,3.47-.3,1.35-1.46,2.29-2.82,2.29h0c-.22,0-.44-.02-.65-.08-.11-.02-.31-.06-.62-.06-1.42,0-3.5.59-5.6,1.37,2.73.42,5.23,1.12,5.87,1.31,1.52.44,2.4,2.05,1.98,3.58-.34,1.25-1.48,2.13-2.78,2.13-.17,0-.34-.01-.51-.04.96.61,1.56,1.04,1.58,1.05,1.28.89,1.61,2.69.74,4.01-.54.81-1.44,1.29-2.4,1.29-.59,0-1.16-.18-1.64-.52-1.55-1.09-4.34-2.8-6.57-3.77-1.15,2.36-2.87,3.84-3.93,4.59-3.04,5.08-7.63,6.82-10.13,7.41l-3.68,4.95c1.42,2.08,2.58,4.65,1.8,6.91-.54,1.55-1.83,2.62-3.55,2.94-.27.05-.56.08-.84.08Z"/>
      <path class="cls-3" d="M287.21,101.09c-3.6-.83-10.24,2.12-12.93,3.42-.33-.75-.73-1.5-1.19-2.27-.03-1.25-.22-5.25-1.41-9.47,1.83-.45,4.35-1.24,7.46-2.62,1.82-.81,4.22-2.12,4.03-4.13-.2-2.13-3.24-3-4.22-3.23-.46-.13-4.36-1.21-9.68-1.6,2-10.71-2.07-16.38-2.25-16.63-.29-.4-.77-.56-1.21-.47-.39-.08-.8.03-1.11.33l-7.63,7.55c-2.21-1.2-4.56-1.85-7-1.93-2.16-.06-4.35.06-6.5.35.05-.15.07-.3.04-.44-.12-.69-1.12-1.09-2.23-.88-1.11.21-1.91.94-1.78,1.63.02.14.09.27.19.39-.26.06-.52.13-.78.2-2.15-2.16-3.01-2.73-3.47-2.97-.46-.24-.84-.44-1.13-.61-1.59-.88-2.41-.97-3.42.77-.16.27-.35.61-.63,1.02-.87,1.31-1.33,4.66-1.53,6.52-2.67,2.05-4.45,4.47-5.3,7.18-3.18,10.13-1.8,12.75-.49,13.84.63.52,1.35.72,2.08.72.05,0,.09,0,.14,0,.09,1.14.12,2.24.09,3.29-2.37.3-4.07.97-5.06,2.01-1.44.52-3.22,2.03-4.26,6.08-.06.24-.11.49-.14.74-4.13,2.21-4.08,4.86-3.66,6.28,1.15,3.85,3.13,4.91,5.64,6.26.49.26.99.53,1.53.84.8.46,1.85.62,2.76.76.4.06.77.12,1.06.19,2.89.73,5.73,1.53,8.45,2.4l.87.28c3.41,1.08,6.93,2.2,10.19,3.72,2.16,1,4.18,2.29,6.01,3.81.62.52,1.2,1.17,1.82,1.86,1.22,1.37,2.49,2.79,4.35,3.49.42.16.81.24,1.18.24.16,0,.31-.02.46-.04,1.35-.25,1.84-1.12,2.01-1.61.71-2.05-1.48-5.08-2.41-6.24l5.03-6.78c1.7-.3,6.75-1.61,9.78-7,.92-.58,3.36-2.4,4.26-5.73,2.83.71,7.25,3.51,8.91,4.68.15.1.32.15.49.15.28,0,.55-.14.71-.39.27-.41.17-.96-.23-1.23-.26-.19-5.79-4.03-9.59-4.96.03-.4.04-.8.03-1.21,2.76-.25,7.58.91,9.42,1.45.08.02.16.03.24.03.38,0,.72-.25.83-.64.13-.47-.13-.96-.59-1.1-.72-.21-6.47-1.85-10.09-1.5-.11-.56-.25-1.13-.44-1.7,3.06-1.5,9.05-4,11.91-3.34.46.11.93-.19,1.03-.67.1-.48-.19-.95-.66-1.06Z"/>
      <g>
        <g>
          <path class="cls-3" d="M247.84,84.87c-2.79-3.27-6.95-8.06-10.03-11.22-.02-.02-.03-.03-.05-.05-2.28-2.34-3.09-2.88-3.33-3-.5-.26-.89-.47-1.2-.65-.05-.03-.11-.06-.16-.09-.16.28-.37.64-.67,1.08-.28.41-.84,2.38-1.16,5.9-.45,4.75-.33,11.23,1.3,14.95,4.23-2.12,9.9-4.8,15.31-6.92ZM233.39,72.39c.32-.87,1.06-.55,1.06-.55l1.39,1.77h0l6.5,8.31c1,1.27.43,3.18-1.09,3.67l-2.84.92c-1.28.41-2.62-.39-2.9-1.73-.84-4.07-2.36-11.75-2.13-12.39Z"/>
          <path class="cls-3" d="M263.16,77.12c.71-2.81,1.76-6.92,1.97-7.26.31-.51.49-.21.49-.21l.29,7.48c.03.88-.53,1.94-1.12,2.17.39.57.76,1.16,1.11,1.75.29,0,.58,0,.88.01,1.45-7.35-.24-12.09-1.18-14.01l-6.37,6.3c1.39,1.03,2.71,2.29,3.93,3.77Z"/>
          <path class="cls-3" d="M270.63,102.61c0-.06-.01-2.25-.47-5.13l-1.85-.55.41,1.8c.16.68-.25,1.36-.92,1.52-.1.02-.19.04-.29.04-.56,0-1.07-.39-1.2-.98l-.34-1.47-.7.84c-.24.3-.59.45-.94.45-.28,0-.56-.1-.8-.3-.52-.45-.59-1.25-.15-1.79l2.28-2.76s.01-.01.02-.02c.02-.02.04-.04.06-.06.03-.03.06-.06.1-.09.02-.02.04-.04.07-.05.05-.04.1-.07.16-.09.02,0,.03-.02.05-.02.06-.03.12-.05.18-.07.01,0,.02,0,.03-.01.01,0,.02,0,.04,0,.05-.01.11-.02.17-.02.02,0,.04,0,.06,0,.07,0,.14,0,.21.02.02,0,.05.01.07.02.03,0,.06.01.09.02l2.65.78c-.19-.78-.41-1.57-.67-2.36,0-.03-.02-.06-.03-.09-1.25-3.73-3.41-7.3-7.14-8.46-1.62.15-3.2.4-4.68.74-1.86.43-4.12,1.14-6.72,2.11-6.25,2.32-13.14,5.62-17.82,7.99-2.34,1.19-3.3,1.7-3.43,1.77-.31.19-.82.48-1.43.75.16,1.81.19,3.55.07,5.17-.25,3.51-1.13,6.03-1.97,7.7,4.6,4.1,11.37,8.7,12.02,9.13,1.25.66,2.55,1.4,4.09,2.3,3.95,2.31,6.9,4.25,9.56,6.26,1.16.88,2.14,1.71,2.99,2.54l5.09-6.86c.21-.28.53-.46.88-.49.23-.02,5.65-.59,8.56-6.08.12-.22.3-.4.52-.52.02-.02,2.6-1.43,3.38-4.43.64-2.45-.05-5.33-2.05-8.55-.13-.2-.19-.44-.19-.68ZM237.24,105.83c-.48.04-.89-.33-.92-.82-.03-.49.33-.91.8-.95,5.8-.41,17.28,2.67,17.77,2.8.46.12.74.61.62,1.08-.1.4-.45.66-.84.66-.07,0-.15,0-.22-.03-.12-.03-11.69-3.14-17.21-2.74ZM241.27,115.13c-.16.12-.34.17-.52.17-.26,0-.53-.12-.7-.36-.28-.39-.2-.95.18-1.24,3.66-2.79,13.94-3.44,14.38-3.46.47-.03.89.34.91.83.03.49-.34.91-.81.94-.1,0-10.2.64-13.45,3.12ZM255.09,115.6c-1.69.51-6.4,2.32-7.85,4.54-.17.26-.44.4-.72.4-.17,0-.33-.05-.48-.15-.4-.27-.5-.82-.24-1.23,2.09-3.21,8.53-5.17,8.8-5.26.46-.14.94.13,1.07.6.13.47-.13.96-.59,1.1ZM259.34,98.46c-.32.62-1.07.86-1.67.53l-2.72-1.47.24,2.91c.06.7-.45,1.31-1.13,1.37-.03,0-.07,0-.1,0-.64,0-1.18-.5-1.23-1.16l-.26-3.15-4.1,2.61c-.2.13-.43.19-.65.19-.41,0-.82-.21-1.05-.6-.36-.6-.18-1.38.4-1.75l5.82-3.7s.03-.02.05-.03c.02-.01.03-.02.05-.03.06-.03.13-.06.2-.08,0,0,.01,0,.02,0,.07-.02.13-.03.2-.04,0,0,.02,0,.03,0,0,0,.01,0,.02,0,.07,0,.14,0,.22,0,.02,0,.03,0,.04,0,.06,0,.12.02.17.04.02,0,.03,0,.05.02.06.02.12.05.17.08l4.72,2.55c.6.33.84,1.09.52,1.71ZM269.3,107.66c-.33,2.78,1.23,3.51,1.32,3.55.44.18.65.69.48,1.14-.17.46-.67.68-1.12.51-.09-.04-1.57-.65-2.19-2.59-.11.3-.25.59-.43.86-1.19,1.83-3.47,2.13-3.56,2.14-.04,0-.07,0-.11,0-.43,0-.8-.33-.86-.78-.06-.49.28-.93.75-.99.02,0,1.59-.23,2.33-1.37.4-.62.5-1.43.3-2.42-2.31-1.13-2.16-1.89-2.08-2.26.2-1,1.43-1.01,1.98-1.01l2.69-.13s.03,0,.05,0c.5,0,1.83,0,2.09,1.04.07.28.28,1.11-1.63,2.29Z"/>
        </g>
        <g>
          <path class="cls-2" d="M255.39,82.31c-.98-.51-1.66-1.56-1.66-2.76,0-1.71,1.36-3.1,3.02-3.1s3.03,1.39,3.03,3.1c0,.75-.26,1.45-.7,1.98.89-.14,1.79-.25,2.71-.32,0,0,.02,0,.02,0,.4-.03.8-.06,1.2-.08-.18-.28-.37-.56-.56-.83-.17-.24-.36-.5-.57-.78-1.6-2.08-3.37-3.73-5.25-4.89-2.09-1.29-4.32-1.98-6.63-2.05-2.99-.09-6.04.2-8.96.83,3.15,3.36,6.89,7.71,9.28,10.52,1.87-.67,3.56-1.22,5.06-1.62Z"/>
          <path class="cls-2" d="M227.94,94.13s.67-.37,2.37-1.24c-1.52-3.43-1.92-8.62-1.74-13.3-1.29,1.34-2.2,2.81-2.69,4.38-2.94,9.38-1.47,10.94-1.29,11.09.36.29,1.41.21,3.31-.91,0,0,.02-.01.03-.02Z"/>
        </g>
        <path class="cls-1" d="M249.98,129.72c-2.58-1.96-5.46-3.84-9.32-6.1-1.53-.9-2.82-1.62-4.06-2.28-.04-.02-.07-.04-.11-.06-.33-.22-8.2-5.51-13.12-10.08,0,0-.01-.01-.02-.02,0,0,0,0,0,0-1.95-1.82-3.16-3.24-3.7-4.43-.49.75-.91,1.77-1.24,3.04-.08.31-.12.61-.12.92-.02,4.2,7.57,7.51,10.5,8.44.65.21,1.02.92.82,1.58-.16.55-.65.9-1.18.9-.12,0-.24-.02-.36-.06-.12-.04-3.01-.96-5.95-2.66-3.26-1.9-5.26-3.99-5.99-6.24-1.07.73-1.87,1.67-1.55,2.76.85,2.84,2.04,3.48,4.42,4.75.48.25,1.02.55,1.59.87.41.24,1.22.36,1.93.47.45.07.88.14,1.28.24,2.94.74,5.83,1.56,8.59,2.44l.87.28c3.48,1.11,7.07,2.25,10.48,3.83,2.35,1.09,4.56,2.49,6.55,4.15.77.64,1.44,1.39,2.09,2.12,1.07,1.2,2.08,2.33,3.36,2.81.26.1.35.08.35.08.06-.01.1-.02.13-.03.04-.58-.84-2.33-2.13-3.89-1.04-1.26-2.36-2.47-4.13-3.82Z"/>
        <g>
          <path class="cls-4" d="M287.21,101.09c-3.6-.83-10.24,2.12-12.93,3.42-.33-.75-.73-1.5-1.19-2.27-.03-1.25-.22-5.25-1.41-9.47,1.83-.45,4.35-1.24,7.46-2.62,1.82-.81,4.22-2.12,4.03-4.13-.2-2.13-3.24-3-4.22-3.23-.46-.13-4.36-1.21-9.68-1.6,2-10.71-2.07-16.38-2.25-16.63-.29-.4-.77-.56-1.21-.47-.39-.08-.8.03-1.11.33l-7.63,7.55c-2.21-1.2-4.56-1.85-7-1.93-2.16-.06-4.35.06-6.5.36.05-.15.07-.3.04-.44-.12-.69-1.12-1.09-2.23-.88-1.11.21-1.91.94-1.78,1.63.02.14.09.27.19.39-.26.06-.52.13-.78.2-2.15-2.16-3.01-2.73-3.47-2.97-.46-.24-.84-.44-1.13-.61-1.59-.88-2.41-.97-3.42.77-.16.27-.35.61-.63,1.02-.87,1.31-1.33,4.66-1.53,6.52-2.67,2.05-4.45,4.47-5.3,7.18-3.18,10.13-1.8,12.75-.49,13.84.63.52,1.35.72,2.08.72.05,0,.09,0,.14,0,.09,1.14.12,2.24.09,3.29-2.37.3-4.07.97-5.06,2.01-1.44.52-3.22,2.03-4.26,6.08-.06.24-.11.49-.14.74-4.13,2.21-4.08,4.86-3.66,6.28,1.15,3.85,3.13,4.91,5.64,6.26.49.26.99.53,1.53.84.8.46,1.85.62,2.77.76.4.06.77.12,1.06.19,2.89.73,5.73,1.53,8.45,2.4l.87.28c3.41,1.08,6.93,2.2,10.19,3.72,2.16,1,4.18,2.28,6.01,3.81.62.52,1.2,1.17,1.82,1.86,1.22,1.37,2.49,2.79,4.35,3.49.42.16.81.24,1.18.24.16,0,.31-.02.46-.04,1.35-.25,1.84-1.12,2.01-1.61.71-2.05-1.48-5.08-2.41-6.24l5.03-6.78c1.7-.3,6.75-1.61,9.78-7,.92-.58,3.36-2.4,4.26-5.73,2.83.71,7.25,3.51,8.91,4.68.15.1.32.15.49.15.28,0,.55-.14.71-.39.27-.41.17-.96-.23-1.23-.26-.19-5.79-4.03-9.59-4.96.03-.4.04-.8.03-1.21,2.77-.25,7.58.91,9.42,1.45.08.02.16.03.24.03.38,0,.72-.25.83-.64.13-.47-.13-.96-.59-1.1-.72-.21-6.47-1.85-10.09-1.5-.11-.56-.25-1.13-.44-1.7,3.06-1.5,9.05-4,11.91-3.34.46.11.93-.19,1.03-.67.1-.48-.19-.95-.66-1.06ZM265.59,67.05c.94,1.92,2.64,6.66,1.18,14.01-.29,0-.58-.01-.88-.01-.35-.6-.72-1.18-1.11-1.75.59-.23,1.15-1.28,1.12-2.17l-.29-7.48s-.17-.3-.49.21c-.21.34-1.26,4.45-1.97,7.26-1.23-1.48-2.55-2.74-3.93-3.77l6.37-6.3ZM249.99,72.57c2.31.07,4.54.76,6.63,2.05,1.88,1.16,3.65,2.81,5.25,4.89.22.28.41.54.57.78.19.27.38.55.56.83-.4.02-.8.05-1.2.08,0,0-.02,0-.02,0-.92.08-1.83.19-2.71.32.44-.54.7-1.23.7-1.98,0-1.71-1.36-3.1-3.03-3.1s-3.02,1.39-3.02,3.1c0,1.2.68,2.25,1.66,2.76-1.5.4-3.2.94-5.06,1.62-2.39-2.81-6.14-7.16-9.28-10.52,2.91-.63,5.97-.93,8.96-.83ZM231.23,76.83c.33-3.52.89-5.49,1.16-5.9.29-.44.5-.8.67-1.08.05.03.11.06.16.09.31.17.7.39,1.2.65.24.12,1.05.66,3.33,3,.02.02.03.03.05.05,3.08,3.16,7.24,7.96,10.03,11.22-5.41,2.11-11.08,4.8-15.31,6.92-1.63-3.71-1.74-10.2-1.3-14.95ZM224.59,95.06c-.18-.15-1.65-1.71,1.29-11.09.49-1.57,1.39-3.04,2.69-4.38-.18,4.69.22,9.87,1.74,13.3-1.7.87-2.34,1.22-2.37,1.24-.01,0-.02.01-.03.02-1.9,1.12-2.96,1.2-3.31.91ZM256.25,137.42s-.07.02-.13.03c0,0-.09.02-.35-.08-1.28-.48-2.29-1.61-3.36-2.81-.65-.73-1.32-1.48-2.09-2.12-2-1.66-4.2-3.05-6.55-4.15-3.41-1.58-7-2.73-10.48-3.83l-.87-.28c-2.77-.88-5.66-1.7-8.59-2.44-.4-.1-.83-.16-1.28-.24-.71-.11-1.52-.23-1.93-.47-.57-.33-1.12-.62-1.59-.87-2.38-1.28-3.58-1.92-4.42-4.75-.33-1.09.48-2.03,1.55-2.76.72,2.25,2.73,4.35,5.99,6.24,2.93,1.7,5.82,2.62,5.95,2.66.12.04.24.06.36.06.53,0,1.02-.35,1.18-.9.2-.67-.17-1.38-.82-1.58-2.93-.93-10.52-4.24-10.5-8.44,0-.3.04-.61.12-.92.33-1.27.75-2.3,1.24-3.04.55,1.19,1.75,2.61,3.7,4.43,0,0,0,0,0,0,0,0,.01.01.02.02,4.91,4.57,12.79,9.86,13.12,10.08.03.02.07.04.11.06,1.23.66,2.52,1.38,4.06,2.28,3.87,2.26,6.74,4.14,9.32,6.1,1.78,1.35,3.09,2.56,4.13,3.82,1.29,1.56,2.17,3.31,2.13,3.89ZM272.87,111.84c-.78,3-3.35,4.41-3.38,4.43-.22.12-.4.3-.52.52-2.91,5.49-8.33,6.06-8.56,6.08-.34.03-.67.21-.88.49l-5.09,6.86c-.85-.83-1.83-1.66-2.99-2.54-2.66-2.02-5.61-3.95-9.56-6.26-1.54-.9-2.84-1.63-4.09-2.3-.65-.44-7.43-5.04-12.02-9.13.84-1.67,1.72-4.19,1.97-7.7.12-1.62.09-3.36-.07-5.17.61-.27,1.12-.57,1.43-.75.13-.07,1.09-.58,3.43-1.77,4.68-2.36,11.56-5.67,17.82-7.99,2.6-.97,4.86-1.68,6.72-2.11,1.49-.35,3.06-.59,4.68-.74,3.73,1.16,5.89,4.73,7.14,8.46,0,.03.02.06.03.09.26.79.48,1.58.67,2.36l-2.65-.78s-.06-.01-.09-.02c-.02,0-.05-.01-.07-.02-.07-.01-.14-.02-.21-.02-.02,0-.04,0-.06,0-.06,0-.11.01-.17.02-.01,0-.02,0-.04,0-.01,0-.02,0-.03.01-.06.02-.12.04-.18.07-.02,0-.03.02-.05.02-.05.03-.11.06-.16.09-.02.02-.04.04-.07.05-.03.03-.07.06-.1.09-.02.02-.04.04-.06.06,0,0-.01.01-.02.02l-2.28,2.76c-.44.54-.38,1.33.15,1.79.23.2.51.3.8.3.35,0,.7-.15.94-.45l.7-.84.34,1.47c.13.58.64.98,1.2.98.09,0,.19-.01.29-.04.66-.16,1.08-.84.92-1.52l-.41-1.8,1.85.55c.45,2.88.47,5.07.47,5.13,0,.24.07.48.19.68,2,3.22,2.69,6.1,2.05,8.55Z"/>
          <path class="cls-4" d="M238.41,86.52l2.84-.92c1.52-.49,2.08-2.39,1.09-3.67l-6.5-8.31h0l-1.39-1.77s-.74-.32-1.06.55c-.23.64,1.29,8.32,2.13,12.39.28,1.34,1.62,2.15,2.9,1.73Z"/>
          <path class="cls-4" d="M254.67,108.6c.38,0,.73-.26.84-.66.12-.47-.15-.96-.62-1.08-.49-.13-11.97-3.21-17.77-2.8-.48.03-.84.46-.8.95.03.49.44.86.92.82,5.52-.39,17.09,2.71,17.21,2.74.07.02.15.03.22.03Z"/>
          <path class="cls-4" d="M255.53,111.08c-.03-.49-.44-.86-.91-.83-.44.03-10.71.67-14.38,3.46-.38.29-.46.85-.18,1.24.17.23.43.36.7.36.18,0,.36-.06.52-.17,3.25-2.47,13.35-3.11,13.45-3.12.48-.03.84-.45.81-.94Z"/>
          <path class="cls-4" d="M254.6,113.9c-.27.08-6.71,2.04-8.8,5.26-.27.41-.16.96.24,1.23.15.1.31.15.48.15.28,0,.55-.14.72-.4,1.45-2.22,6.16-4.03,7.85-4.54.46-.14.72-.63.59-1.1-.13-.47-.62-.74-1.07-.6Z"/>
          <path class="cls-4" d="M258.82,96.75l-4.72-2.55c-.06-.03-.12-.05-.17-.08-.02,0-.03-.01-.05-.02-.06-.02-.11-.03-.17-.04-.01,0-.03,0-.04,0-.07,0-.14,0-.22,0,0,0-.01,0-.02,0,0,0-.02,0-.03,0-.07,0-.14.02-.2.04,0,0-.01,0-.02,0-.07.02-.13.05-.2.08-.02,0-.04.02-.05.03-.02,0-.03.02-.05.03l-5.82,3.7c-.58.37-.76,1.15-.4,1.75.23.39.64.6,1.05.6.22,0,.45-.06.65-.19l4.1-2.61.26,3.15c.05.66.59,1.16,1.23,1.16.03,0,.07,0,.1,0,.68-.06,1.19-.67,1.13-1.37l-.24-2.91,2.72,1.47c.6.33,1.35.09,1.67-.53.32-.62.09-1.39-.52-1.71Z"/>
          <path class="cls-4" d="M268.84,104.32s-.03,0-.05,0l-2.69.13c-.55,0-1.78.02-1.98,1.01-.08.37-.23,1.13,2.08,2.26.21.99.11,1.8-.3,2.42-.74,1.14-2.32,1.37-2.33,1.37-.47.06-.81.5-.75.99.05.45.43.78.86.78.04,0,.07,0,.11,0,.1-.01,2.37-.32,3.56-2.14.18-.27.32-.56.43-.86.62,1.94,2.1,2.55,2.19,2.59.45.18.95-.05,1.12-.51.17-.45-.05-.96-.48-1.14-.09-.04-1.64-.78-1.32-3.55,1.91-1.18,1.7-2.01,1.63-2.29-.26-1.04-1.59-1.04-2.09-1.04Z"/>
        </g>
      </g>
      <g>
        <g>
          <path class="cls-3" d="M8.08,314.04l-5.81-28.18,6.6-1.36,4.1,19.87,7.77-1.6-3.82-18.51,6.65-1.37,3.82,18.51,13.15-2.72,1.71,8.31-34.17,7.06Z"/>
          <path class="cls-3" d="M1.13,271.4l34.71-3.46.84,8.44-34.71,3.46-.84-8.44Z"/>
          <path class="cls-3" d="M34.88,262.64l-34.88-.76.22-10.02c15.18-9.49,20.71-13.29,24.87-15.39v-.1c-3.67.27-10.16.08-15.91-.05l-8.62-.19.17-7.79,34.88.76-.21,9.42c-5.27,3.16-22.86,13.99-26.87,15.99v.1c4.27-.2,9.27-.09,15.46.04l11.05.24-.17,7.74Z"/>
          <path class="cls-3" d="M1.99,217.36l3.07-15.47c2.29-11.53,11.03-16.37,20.07-14.58,10.94,2.17,16.1,11.54,14.13,21.52l-3.04,15.33-34.22-6.8ZM31.44,214.56l1.17-5.89c1.33-6.71-1.75-11.07-9.04-12.52-6.32-1.26-10.91,1.27-12.38,8.16l-1.19,5.99,21.44,4.26Z"/>
          <path class="cls-3" d="M13.92,168.93l33.17,10.84-2.63,8.06-33.17-10.84,2.63-8.06Z"/>
          <path class="cls-3" d="M48.33,174.55l-31.58-14.84,4.25-9.07c17.72-2.52,24.32-3.75,28.97-3.98l.04-.09c-3.47-1.25-9.32-4.05-14.53-6.5l-7.81-3.67,3.31-7.05,31.58,14.84-4,8.53c-6.1.75-26.56,3.52-31.04,3.72l-.04.09c3.98,1.54,8.52,3.67,14.12,6.31l10,4.7-3.29,7.01Z"/>
          <path class="cls-3" d="M84.94,111.94l-3.56,5.01c-.72-.27-2.16-.99-3.25-1.58.88,3.3.5,6.75-3.29,12.08-6.55,9.22-16.54,9.84-24.86,3.92-8.32-5.92-11.11-16.12-3.87-26.31,6.49-9.14,14.24-9.52,18.91-7.36l-4.94,6.95c-1.86-.47-5.46-.54-8.76,4.11-4.16,5.86-1.79,11.33,3.51,15.09,5.57,3.97,11.6,4.3,15.74-1.52,3.42-4.81,2.46-8.78-.93-11.19l-.44-.32-4.91,6.91-5.33-3.79,9.68-13.62,16.32,11.61Z"/>
          <path class="cls-3" d="M71.56,75.18l14.34-12.97c6.18-5.58,11.59-4.99,14.87-1.35,2.72,3.02,2.48,6.45,1.12,9.01,3.2-1.49,7.28-1.63,10.23,1.65,4.42,4.9,3.26,11.09-3.1,16.84l-14.08,12.73-23.38-25.91ZM93.71,73.53c2.8-2.53,2.72-4.46,1.29-6.05-1.76-1.95-3.96-1.36-6.13.6l-6.88,6.22,4.88,5.41,6.84-6.18ZM96.9,90.83l7.1-6.42c2.43-2.19,3.63-4.56,1.31-7.13-1.86-2.06-4.22-1.87-6.98.63l-7.21,6.52,5.78,6.41Z"/>
          <path class="cls-3" d="M136.85,50.2l-16.32,10.64,4.33,6.65,18.15-11.83,2.88,6.24-24.42,15.92-19.04-29.27,24.29-15.84,3.71,5.69-17.19,11.21,3.6,5.53,16.32-10.64,3.71,5.7Z"/>
          <path class="cls-3" d="M153.55,49.46l.4,8.48-7.99,3.49-1.1-37.62,9.99-4.36,27.48,26.09-8.4,3.67-6.17-5.97-14.22,6.21ZM162.92,37.96c-6.19-6.01-9.29-9.15-11.11-11.22l-.05.02c.35,2.66.74,8.28,1.07,15.6l10.08-4.4Z"/>
          <path class="cls-3" d="M181.24,10.19l4.81,19.15c1.81,7.22,6.07,8.09,10.2,7.05,4.42-1.11,6.92-3.79,5.13-10.91l-4.81-19.15,8.22-2.07,4.87,19.39c2.59,10.29-1.95,16.65-11.99,19.18-9.76,2.45-17.08-.46-19.72-10.99l-4.92-19.58,8.22-2.07Z"/>
          <path class="cls-3" d="M224.29,8.77l-12.24,1.07-.59-6.72L244.34.25l.59,6.72-12.19,1.07,2.45,28.07-8.44.74-2.45-28.07Z"/>
          <path class="cls-3" d="M261.34,35.9l.89-12.47c.03-.44-.1-.7-.36-1.17L249.01,0l10.03.72c3.02,5.69,6.84,12.63,8.24,16.06,2.01-3.14,6.89-9.5,10.69-14.7l9.19.66-16.23,20.52c-.17.29-.23.48-.27.93l-.88,12.32-8.45-.61Z"/>
          <path class="cls-3" d="M324.88,32.95l-18.78-5.18-2.11,7.65,20.88,5.76-2.76,6.29-28.09-7.75,9.27-33.67,27.95,7.71-1.8,6.55-19.78-5.46-1.75,6.36,18.78,5.18-1.8,6.55Z"/>
          <path class="cls-3" d="M334.85,53.02l1.65-37.68,8.51,3.92-1.35,17.67c-.56,6.68-1.06,10.16-1.45,12.43l.09.04c1.34-1.62,2.41-2.77,9.15-9.6l12.07-12.03,8.24,3.79-27.72,25.69-9.19-4.23Z"/>
          <path class="cls-3" d="M388.57,66.97l-16.23-10.78-4.38,6.61,18.05,11.98-4.58,5.11-24.28-16.12,19.28-29.1,24.16,16.04-3.75,5.66-17.1-11.35-3.64,5.5,16.23,10.78-3.75,5.66Z"/>
          <path class="cls-3" d="M399.22,77.71l-9.06,9.92-6.18-5.66,23.54-25.77,14.01,12.82c5.96,5.46,6.69,11.5,2.64,15.93-3.04,3.33-6.75,3.5-10.05,1.96.66,1.41,2.47,4.95-1.75,9.56l-1.17,1.28c-1.64,1.79-3.44,3.77-4.22,5.28l-6.4-5.86c.6-1.54,1.97-3.11,4.44-5.82l.8-.88c2.37-2.6,2.39-4.53-1.37-7.98l-5.23-4.79ZM403.54,72.99l6.44,5.89c3.04,2.78,5.36,2.88,7.33.72,1.87-2.05,1.56-4.42-1.41-7.14l-6.47-5.92-5.89,6.44Z"/>
          <path class="cls-3" d="M415.44,113.5l9.77-7.79c.35-.28.45-.55.61-1.06l7.65-24.55,6.27,7.88c-2.13,6.08-4.64,13.59-6.22,16.94,3.67-.64,11.65-1.36,18.04-2.08l5.74,7.22-26.07,1.95c-.33.07-.51.15-.86.43l-9.65,7.69-5.28-6.64Z"/>
          <path class="cls-3" d="M432.69,136.42l26.29-25.01,4.12,7.86c-6.17,5.53-15.99,14.67-21.19,18.3l.02.04c6.24-1.99,19.19-4.7,27.43-6.39l3.75,7.16c-5.79,5.51-16.57,15.59-20.65,18.8l.05.09c6.08-2.07,19.08-5.03,26.91-6.85l3.96,7.56-35.8,6.87-4.26-8.13c5.77-5.55,15.91-14.91,19.82-18.25l-.02-.04c-5.75,1.84-17.48,4.25-26.2,6.08l-4.24-8.08Z"/>
          <path class="cls-3" d="M485.36,165.56l2.34,8.15-12.57,3.62,4.44,15.44,12.57-3.62,2.34,8.15-33.53,9.66-2.34-8.15,14.43-4.16-4.44-15.45-14.43,4.16-2.34-8.15,33.53-9.66Z"/>
          <path class="cls-3" d="M479.56,238.06l-2.25-19.37-7.88.92,2.5,21.53-6.86-.2-3.37-28.98,34.66-4.03,3.35,28.83-6.74.78-2.37-20.4-6.55.76,2.25,19.37-6.74.78Z"/>
          <path class="cls-3" d="M478.24,253.15l-13.42-.52.32-8.38,34.86,1.34-.73,18.99c-.31,8.08-4.45,12.54-10.44,12.31-4.51-.17-7.03-2.9-7.99-6.41-.65,1.41-2.18,5.08-8.42,4.84l-1.73-.07c-2.43-.09-5.1-.2-6.75.19l.33-8.68c1.56-.54,3.64-.51,7.3-.36l1.19.05c3.52.13,5-1.1,5.2-6.2l.27-7.09ZM484.63,253.39l-.33,8.72c-.16,4.11,1.26,5.96,4.18,6.07,2.77.11,4.38-1.67,4.53-5.68l.34-8.77-8.72-.33Z"/>
          <path class="cls-3" d="M472.33,309.4l3.77-19.13-7.78-1.54-4.19,21.27-6.47-2.29,5.64-28.62,34.23,6.76-5.62,28.48-6.66-1.32,3.97-20.15-6.47-1.28-3.77,19.13-6.66-1.32Z"/>
        </g>
        <g>
          <path class="cls-3" d="M44.67,391.76l20.02-31.95,5.47,7.61-9.89,14.7c-3.78,5.53-5.93,8.31-7.4,10.09l.06.08c1.97-.74,3.46-1.21,12.7-3.82l16.43-4.49,5.3,7.37-36.77,8.63-5.9-8.22Z"/>
          <path class="cls-3" d="M93.66,397.13l-25.92,23.37-5.67-6.3,25.92-23.37,5.67,6.3Z"/>
          <path class="cls-3" d="M84.44,422.76c-1.28,2.92-.82,5.98,3.5,9.85,4.06,3.64,6.33,3.4,7.82,1.74,1.62-1.81,1.33-3.87-3.31-9.69-7.66-9.65-6.68-14.03-3.54-17.54,4.66-5.22,11.99-3.38,18.16,2.14,8.9,7.97,7.25,14.73,4.83,18.03l-6.32-5.65c.79-1.62,1.45-4.16-2.83-7.99-2.99-2.68-5.37-3.07-6.88-1.37-1.32,1.48-.94,3.22,3.17,8.43,8.28,10.6,7.16,14.99,3.79,18.76-4.03,4.51-10.85,5-19.56-2.8-8.13-7.27-8.55-14.17-5.17-19.59l6.35,5.69Z"/>
          <path class="cls-3" d="M127.59,426.67l-10.68,16.6c-4.02,6.26-1.75,9.96,1.83,12.27,3.83,2.47,7.49,2.47,11.46-3.71l10.67-16.6,7.13,4.59-10.81,16.81c-5.74,8.93-13.48,9.96-22.18,4.35-8.46-5.45-11.34-12.79-5.46-21.93l10.92-16.98,7.12,4.59Z"/>
          <path class="cls-3" d="M146.56,468.8l-5.93,6.07-8-3.48,26.77-26.43,10,4.35-.36,37.92-8.41-3.66.16-8.58-14.23-6.19ZM161.36,467.83c.18-8.63.37-13.04.64-15.78l-.05-.02c-1.71,2.07-5.55,6.18-10.68,11.41l10.09,4.39Z"/>
          <path class="cls-3" d="M183,454.61l8.19,2.18-7.24,27.18,18.87,5.03-2.85,6.27-25.95-6.92,8.98-33.75Z"/>
          <path class="cls-3" d="M221.05,463.58l15.73.94c11.73.7,17.7,8.71,17.15,17.93-.67,11.14-9.24,17.54-19.38,16.93l-15.58-.93,2.09-34.87ZM227.82,492.42l5.99.36c6.83.41,10.72-3.23,11.16-10.66.39-6.44-2.74-10.65-9.76-11.17l-6.08-.36-1.31,21.84Z"/>
          <path class="cls-3" d="M286.93,482.66l-19.39,1.86.76,7.9,21.56-2.07-.34,6.86-29.01,2.79-3.34-34.77,28.86-2.77.65,6.77-20.42,1.96.63,6.57,19.39-1.86.65,6.77Z"/>
          <path class="cls-3" d="M300.29,484.23c1.71,2.69,4.5,4.02,10.12,2.6,5.28-1.34,6.36-3.36,5.81-5.52-.6-2.36-2.46-3.26-9.88-2.66-12.28.97-15.36-2.29-16.52-6.85-1.72-6.78,3.9-11.84,11.92-13.88,11.57-2.94,16.26,2.21,17.64,6.05l-8.21,2.09c-.91-1.56-2.63-3.53-8.21-2.11-3.89.99-5.54,2.74-4.98,4.95.49,1.92,2.14,2.58,8.76,2.07,13.41-.96,16.41,2.43,17.66,7.33,1.49,5.86-1.91,11.8-13.25,14.68-10.57,2.69-16.52-.81-19.12-6.65l8.26-2.1Z"/>
          <path class="cls-3" d="M328.7,450.03l12.18,32.72-7.94,2.96-12.18-32.72,7.94-2.96Z"/>
          <path class="cls-3" d="M379.84,464.01l-5.46,2.83c-.52-.57-1.47-1.86-2.17-2.9-.73,3.34-2.64,6.23-8.44,9.24-10.03,5.2-19.2,1.19-23.89-7.89-4.7-9.07-2.52-19.42,8.57-25.17,9.94-5.16,17.02-1.95,20.18,2.11l-7.57,3.92c-1.44-1.27-4.61-2.97-9.67-.35-6.38,3.31-6.76,9.26-3.77,15.03,3.15,6.08,8.35,9.13,14.69,5.85,5.24-2.71,6.2-6.68,4.28-10.38l-.25-.48-7.52,3.9-3.01-5.81,14.83-7.69,9.21,17.79Z"/>
          <path class="cls-3" d="M387.57,459.03l-21.16-27.76,7.96-6.08c16.88,5.95,23.3,7.91,27.53,9.86l.08-.06c-2.5-2.71-6.4-7.9-9.89-12.48l-5.23-6.86,6.19-4.72,21.16,27.76-7.49,5.72c-5.76-2.16-25.18-9.16-29.24-11.05l-.08.06c2.82,3.21,5.86,7.19,9.62,12.12l6.7,8.8-6.15,4.69Z"/>
          <path class="cls-3" d="M429.92,401.42l-13.39,14.16,5.76,5.46,14.89-15.74,4.25,5.39-20.04,21.18-25.34-24.01,19.93-21.07,4.93,4.67-14.11,14.91,4.79,4.54,13.39-14.16,4.93,4.67Z"/>
          <path class="cls-3" d="M440.1,389.97l11.04,7.66-4.77,6.89-28.68-19.89,10.81-15.62c4.6-6.65,10.48-8.18,15.41-4.76,3.71,2.57,4.37,6.23,3.29,9.71,1.31-.84,4.56-3.11,9.7.45l1.43.99c2,1.38,4.2,2.91,5.79,3.48l-4.94,7.14c-1.6-.39-3.34-1.53-6.36-3.62l-.98-.68c-2.89-2.01-4.81-1.77-7.72,2.44l-4.04,5.83ZM434.84,386.33l4.97-7.18c2.34-3.38,2.14-5.7-.27-7.37-2.28-1.58-4.59-.95-6.88,2.35l-5,7.22,7.17,4.97Z"/>
        </g>
      </g>
      <g>
        <g>
          <path class="cls-3" d="M171.86,403.98c-13.99,0-23.03-9.21-23.03-23.46s9.9-23.7,24.08-23.7c15.87,0,20.08,9.73,21.16,13.92.15.58.02,1.2-.35,1.68-.37.48-.94.75-1.54.75h-6.07c-.79,0-1.51-.48-1.81-1.22-1.72-4.27-5.57-6.44-11.45-6.44-10.28,0-13.94,7.57-13.94,14.65,0,9.29,5.3,15.06,13.82,15.06,7.43,0,11.33-3.33,11.59-9.9h-11.47c-1.08,0-1.95-.87-1.95-1.95v-4.97c0-1.08.87-1.95,1.95-1.95h19.1c1.08,0,1.95.87,1.95,1.95v22.74c0,1.08-.87,1.95-1.95,1.95h-4.5c-.95,0-1.76-.69-1.92-1.63-.06-.35-.12-.89-.19-1.52-3.23,2.76-7.57,4.03-13.48,4.03Z"/>
          <path class="cls-3" d="M191.95,401.15h-4.5c-.18-1.05-.47-4.33-.47-6.14-2.74,4.44-7.01,7.02-15.13,7.02-13.08,0-21.08-8.59-21.08-21.51,0-12.22,8.29-21.75,22.13-21.75,12.38,0,17.7,6.31,19.27,12.45h-6.07c-1.58-3.92-5.2-7.66-13.26-7.66-10.4,0-15.89,7.31-15.89,16.6,0,9.82,5.55,17.01,15.77,17.01,8.64,0,13.55-4.38,13.55-12.57v-1.23h-13.43v-4.97h19.1v22.74Z"/>
          <path class="cls-3" d="M215.13,403.92c-11.52,0-17.54-8.83-17.54-17.56,0-10.17,7.5-17.56,17.83-17.56,11.55,0,17.6,8.83,17.6,17.56,0,4.72-1.6,9.05-4.5,12.2-3.24,3.51-7.87,5.36-13.39,5.36ZM215.19,377.26c-5.88,0-7.98,4.7-7.98,9.1s2.53,9.1,8.1,9.1c7.51,0,8.1-6.92,8.1-9.04,0-4.56-2.54-9.16-8.21-9.16Z"/>
          <path class="cls-3" d="M231.08,386.36c0,8.18-5.31,15.61-15.94,15.61-9.99,0-15.59-7.42-15.59-15.61s5.96-15.61,15.89-15.61,15.65,7.78,15.65,15.61ZM205.26,386.36c0,5.67,3.56,11.05,10.05,11.05s10.05-5.03,10.05-10.99-3.56-11.11-10.16-11.11-9.93,5.14-9.93,11.05Z"/>
          <path class="cls-3" d="M260.4,403.1c-1.08,0-1.95-.87-1.95-1.95v-17.01c0-5.99-2.89-6.76-5.41-6.76-6.28,0-7.22,5.99-7.22,9.57v14.21c0,1.08-.87,1.95-1.95,1.95h-5.55c-1.08,0-1.95-.87-1.95-1.95v-22.1c0-2.45,0-5.24-.06-7.43-.01-.53.18-1.03.55-1.41.37-.38.87-.59,1.39-.59h5.37c.99,0,1.82.74,1.93,1.72.01.11.03.23.04.36,1.96-1.59,4.83-2.9,8.95-2.9,8.26,0,13.39,5.5,13.39,14.34v18.01c0,1.08-.87,1.95-1.95,1.95h-5.61Z"/>
          <path class="cls-3" d="M238.32,379.06c0-2.51,0-5.26-.06-7.48h5.37c.12.99.23,3.45.23,5.5,1.28-2.86,4.38-6.31,10.69-6.31,6.95,0,11.45,4.27,11.45,12.39v18.01h-5.61v-17.01c0-4.85-1.81-8.71-7.36-8.71-6.13,0-9.17,4.68-9.17,11.52v14.21h-5.55v-22.1Z"/>
          <path class="cls-3" d="M272.6,403.1c-1.08,0-1.95-.87-1.95-1.95v-4.15c0-.51.2-1,.56-1.36l17.25-17.62h-14.75c-1.08,0-1.95-.87-1.95-1.95v-4.5c0-1.08.87-1.95,1.95-1.95h26.51c1.08,0,1.95.87,1.95,1.95v4.27c0,.51-.2,1-.55,1.36l-17.03,17.44h16.98c.58,0,1.13.26,1.5.71.37.45.52,1.04.41,1.61l-.88,4.56c-.18.92-.98,1.58-1.91,1.58h-28.09Z"/>
          <path class="cls-3" d="M272.6,397l20.5-20.93h-19.39v-4.5h26.51v4.27l-20.27,20.75h21.61l-.88,4.56h-28.09v-4.15Z"/>
          <path class="cls-3" d="M307.49,403.1c-1.08,0-1.95-.87-1.95-1.95v-4.15c0-.51.2-1,.56-1.36l17.25-17.62h-14.75c-1.08,0-1.95-.87-1.95-1.95v-4.5c0-1.08.87-1.95,1.95-1.95h26.51c1.08,0,1.95.87,1.95,1.95v4.27c0,.51-.2,1-.55,1.36l-17.03,17.44h16.98c.58,0,1.13.26,1.5.71.37.45.52,1.04.41,1.61l-.88,4.56c-.18.92-.98,1.58-1.91,1.58h-28.09Z"/>
          <path class="cls-3" d="M307.49,397l20.5-20.93h-19.39v-4.5h26.51v4.27l-20.27,20.75h21.61l-.88,4.56h-28.09v-4.15Z"/>
        </g>
        <ellipse class="cls-3" cx="346.99" cy="398.99" rx="4.11" ry="4.12"/>
      </g>
      <g>
        <path class="cls-3" d="M158.15,189.43c-.68,3.17-3.21,5.42-8.01,5.42-5.54,0-8.32-3.55-8.32-7.82s2.74-7.8,8.52-7.8c5.07,0,7.45,2.64,7.84,5.34h-4.88c-.21-.81-.83-2.04-2.97-2.04-2.27,0-3.38,1.79-3.38,4.4,0,2.38.89,4.59,3.4,4.59,1.8,0,2.55-.81,2.97-2.08h4.84Z"/>
        <path class="cls-3" d="M163.93,189v5.51h-4.78v-14.94h9.05c3.69,0,5.65,1.81,5.65,4.29,0,1.91-1.12,3.06-2.59,3.57.81.34,2.19,1.06,2.19,3.59v.81c0,.85,0,1.96.21,2.68h-4.84c-.23-.64-.3-1.55-.3-3.1v-.49c0-1.4-.45-1.91-2.34-1.91h-2.25ZM163.93,185.9h2.97c1.32,0,2.06-.49,2.06-1.55,0-1-.68-1.57-2.06-1.57h-2.97v3.13Z"/>
        <path class="cls-3" d="M179.81,191.72l-.96,2.79h-4.86l5.65-14.94h6.33l6.01,14.94h-5.2l-1.02-2.79h-5.95ZM184.63,188.26c-.98-2.7-1.55-4.4-1.91-5.63h-.08c-.32,1.23-.98,3.36-1.78,5.63h3.78Z"/>
        <path class="cls-3" d="M192.43,179.56h13.02v3.44h-8.2v2.68h7.67v3.47h-7.67v5.36h-4.82v-14.94Z"/>
        <path class="cls-3" d="M210.8,183.01h-4.95v-3.44h14.69v3.44h-4.9v11.5h-4.84v-11.5Z"/>
        <path class="cls-3" d="M226.35,179.56v14.94h-4.84v-14.94h4.84Z"/>
        <path class="cls-3" d="M228.7,194.51v-14.94h5.65c3.31,5.36,4.42,7.29,5.39,9.23h.08c-.15-1.42-.13-4.12-.13-6.59v-2.64h4.35v14.94h-5.33c-1.17-2.08-4.84-8.44-5.73-10.27h-.06c.13,1.7.15,3.7.15,6.63v3.64h-4.37Z"/>
        <path class="cls-3" d="M261.85,194.51h-3.33c-.11-.32-.21-.85-.3-1.36-.96,1.06-2.21,1.7-4.95,1.7-4.93,0-7.64-3.32-7.64-7.67s2.7-7.95,8.58-7.95c4.73,0,7.22,2.4,7.67,4.91h-4.86c-.23-.7-.87-1.72-2.82-1.72-2.53,0-3.44,2.08-3.44,4.51,0,2.64,1.04,4.65,3.55,4.65,2.12,0,2.89-1.21,2.89-2.36v-.15h-2.93v-3.27h7.6v8.71Z"/>
        <path class="cls-3" d="M272.81,179.56v8.65c0,2.38,1.15,3.17,2.74,3.17,1.68,0,2.57-.87,2.57-3.17v-8.65h4.86v8.67c0,4.34-2.42,6.61-7.56,6.61s-7.47-2.15-7.47-6.61v-8.67h4.86Z"/>
        <path class="cls-3" d="M285.13,194.51v-14.94h5.65c3.31,5.36,4.42,7.29,5.39,9.23h.08c-.15-1.42-.13-4.12-.13-6.59v-2.64h4.35v14.94h-5.33c-1.17-2.08-4.84-8.44-5.73-10.27h-.06c.13,1.7.15,3.7.15,6.63v3.64h-4.38Z"/>
        <path class="cls-3" d="M307.69,179.56v14.94h-4.84v-14.94h4.84Z"/>
        <path class="cls-3" d="M326.29,187.01c0,2.27-.81,4.38-2.48,5.82l3.36,2.23-2.42,2.78-4.82-3.21c-.7.15-1.47.21-2.29.21-5.39,0-8.37-3.44-8.37-7.82,0-4.12,2.89-7.8,8.58-7.8,5.39,0,8.45,3.53,8.45,7.78ZM314.38,186.94c0,2.61,1.04,4.53,3.48,4.53s3.31-2.19,3.31-4.44c0-2.59-.91-4.51-3.44-4.51s-3.36,1.98-3.36,4.42Z"/>
        <path class="cls-3" d="M332.41,179.56v8.65c0,2.38,1.15,3.17,2.74,3.17,1.68,0,2.57-.87,2.57-3.17v-8.65h4.86v8.67c0,4.34-2.42,6.61-7.56,6.61s-7.47-2.15-7.47-6.61v-8.67h4.86Z"/>
        <path class="cls-3" d="M357.49,188.56h-7.98v2.51h8.92l-.55,3.44h-13.14v-14.94h13.19v3.44h-8.41v2.08h7.98v3.47Z"/>
        <path class="cls-3" d="M107.56,200.82h8.39c3.59,0,6.09,1.79,6.09,4.87s-2.36,4.99-6.07,4.99h-3.59v5.08h-4.82v-14.94ZM112.38,207.41h2.82c1.3,0,2.06-.53,2.06-1.68,0-.96-.57-1.64-2.06-1.64h-2.82v3.32Z"/>
        <path class="cls-3" d="M127.86,210.26v5.51h-4.78v-14.94h9.05c3.69,0,5.65,1.81,5.65,4.29,0,1.91-1.12,3.06-2.59,3.57.81.34,2.19,1.06,2.19,3.59v.81c0,.85,0,1.96.21,2.68h-4.84c-.23-.64-.3-1.55-.3-3.1v-.49c0-1.4-.45-1.91-2.34-1.91h-2.25ZM127.86,207.16h2.97c1.32,0,2.06-.49,2.06-1.55,0-1-.68-1.57-2.06-1.57h-2.97v3.13Z"/>
        <path class="cls-3" d="M155.43,208.27c0,4.21-2.8,7.84-8.66,7.84-5.39,0-8.37-3.44-8.37-7.82,0-4.12,2.89-7.8,8.58-7.8,5.39,0,8.45,3.53,8.45,7.78ZM143.52,208.2c0,2.61,1.04,4.53,3.48,4.53s3.31-2.19,3.31-4.44c0-2.59-.91-4.51-3.44-4.51s-3.35,1.98-3.35,4.42Z"/>
        <path class="cls-3" d="M156.92,200.82h13.02v3.44h-8.2v2.68h7.67v3.47h-7.67v5.36h-4.82v-14.94Z"/>
        <path class="cls-3" d="M183.85,209.82h-7.98v2.51h8.92l-.55,3.44h-13.14v-14.94h13.19v3.44h-8.41v2.08h7.98v3.47Z"/>
        <path class="cls-3" d="M189.86,211.26c.32,1,1.08,1.74,3.04,1.74,1.72,0,2.25-.53,2.25-1.28,0-.79-.47-1.25-3.27-1.74-5.52-.96-6.31-2.85-6.31-4.83,0-2.95,2.78-4.68,6.86-4.68,4.97,0,6.94,2.3,7.13,4.51h-4.71c-.17-.66-.57-1.42-2.44-1.42-1.32,0-1.93.43-1.93,1.13s.62,1.02,2.95,1.45c5.63,1,6.73,2.78,6.73,5.04,0,2.85-2.4,4.91-7.47,4.91s-7.24-2.13-7.69-4.83h4.86Z"/>
        <path class="cls-3" d="M205.47,211.26c.32,1,1.08,1.74,3.04,1.74,1.72,0,2.25-.53,2.25-1.28,0-.79-.47-1.25-3.27-1.74-5.52-.96-6.31-2.85-6.31-4.83,0-2.95,2.78-4.68,6.86-4.68,4.97,0,6.94,2.3,7.13,4.51h-4.72c-.17-.66-.57-1.42-2.44-1.42-1.32,0-1.93.43-1.93,1.13s.62,1.02,2.95,1.45c5.63,1,6.73,2.78,6.73,5.04,0,2.85-2.4,4.91-7.47,4.91s-7.24-2.13-7.69-4.83h4.86Z"/>
        <path class="cls-3" d="M221.99,200.82v14.94h-4.84v-14.94h4.84Z"/>
        <path class="cls-3" d="M240.59,208.27c0,4.21-2.8,7.84-8.66,7.84-5.39,0-8.37-3.44-8.37-7.82,0-4.12,2.89-7.8,8.58-7.8,5.39,0,8.45,3.53,8.45,7.78ZM228.68,208.2c0,2.61,1.04,4.53,3.48,4.53s3.31-2.19,3.31-4.44c0-2.59-.91-4.51-3.44-4.51s-3.35,1.98-3.35,4.42Z"/>
        <path class="cls-3" d="M242.08,215.77v-14.94h5.65c3.31,5.36,4.42,7.29,5.39,9.23h.08c-.15-1.42-.13-4.12-.13-6.59v-2.64h4.35v14.94h-5.33c-1.17-2.08-4.84-8.44-5.73-10.27h-.06c.13,1.7.15,3.7.15,6.63v3.64h-4.37Z"/>
        <path class="cls-3" d="M263.81,212.98l-.96,2.79h-4.86l5.65-14.94h6.33l6.01,14.94h-5.2l-1.02-2.79h-5.95ZM268.63,209.52c-.98-2.7-1.55-4.4-1.91-5.63h-.08c-.32,1.23-.98,3.36-1.78,5.63h3.78Z"/>
        <path class="cls-3" d="M276.43,200.82h4.86v11.48h8.01l-.57,3.47h-12.3v-14.94Z"/>
        <path class="cls-3" d="M294.5,200.82h9.2c3.82,0,5.41,1.81,5.41,3.87,0,1.74-1.06,2.76-2.31,3.19,1.49.47,2.89,1.57,2.89,3.47,0,2.59-1.91,4.42-6.09,4.42h-9.09v-14.94ZM302.5,206.56c1.34,0,1.74-.6,1.74-1.32,0-.89-.66-1.32-1.74-1.32h-3.29v2.64h3.29ZM299.21,212.69h3.35c1.3,0,2.04-.47,2.04-1.57,0-.91-.59-1.49-1.93-1.49h-3.46v3.06Z"/>
        <path class="cls-3" d="M315.82,210.26v5.51h-4.78v-14.94h9.04c3.7,0,5.65,1.81,5.65,4.29,0,1.91-1.13,3.06-2.59,3.57.81.34,2.19,1.06,2.19,3.59v.81c0,.85,0,1.96.21,2.68h-4.84c-.23-.64-.3-1.55-.3-3.1v-.49c0-1.4-.45-1.91-2.34-1.91h-2.25ZM315.82,207.16h2.97c1.32,0,2.06-.49,2.06-1.55,0-1-.68-1.57-2.06-1.57h-2.97v3.13Z"/>
        <path class="cls-3" d="M331.71,212.98l-.96,2.79h-4.86l5.65-14.94h6.33l6.01,14.94h-5.2l-1.02-2.79h-5.95ZM336.53,209.52c-.98-2.7-1.55-4.4-1.91-5.63h-.08c-.32,1.23-.98,3.36-1.78,5.63h3.78Z"/>
        <path class="cls-3" d="M344.32,215.77v-14.94h5.65c3.31,5.36,4.42,7.29,5.39,9.23h.08c-.15-1.42-.13-4.12-.13-6.59v-2.64h4.35v14.94h-5.33c-1.17-2.08-4.84-8.44-5.73-10.27h-.06c.13,1.7.15,3.7.15,6.63v3.64h-4.37Z"/>
        <path class="cls-3" d="M362.04,200.82h7.56c5.39,0,8.11,3.3,8.11,7.23,0,4.61-3.38,7.72-8.15,7.72h-7.52v-14.94ZM366.88,212.41h2.1c2.4,0,3.61-1.45,3.61-4.25,0-2.3-.96-3.97-3.61-4h-2.1v8.25Z"/>
        <path class="cls-3" d="M382.91,211.26c.32,1,1.08,1.74,3.04,1.74,1.72,0,2.25-.53,2.25-1.28,0-.79-.47-1.25-3.27-1.74-5.52-.96-6.31-2.85-6.31-4.83,0-2.95,2.78-4.68,6.86-4.68,4.97,0,6.94,2.3,7.13,4.51h-4.71c-.17-.66-.57-1.42-2.44-1.42-1.32,0-1.93.43-1.93,1.13s.62,1.02,2.95,1.45c5.63,1,6.73,2.78,6.73,5.04,0,2.85-2.4,4.91-7.47,4.91s-7.24-2.13-7.69-4.83h4.86Z"/>
        <path class="cls-3" d="M160.79,222.08h13.02v3.44h-8.2v2.68h7.67v3.47h-7.67v5.36h-4.82v-14.94Z"/>
        <path class="cls-3" d="M179.74,231.52v5.51h-4.78v-14.94h9.05c3.69,0,5.65,1.81,5.65,4.29,0,1.91-1.12,3.06-2.59,3.57.81.34,2.19,1.06,2.19,3.59v.81c0,.85,0,1.96.21,2.68h-4.84c-.23-.64-.3-1.55-.3-3.1v-.49c0-1.4-.45-1.91-2.34-1.91h-2.25ZM179.74,228.42h2.97c1.32,0,2.06-.49,2.06-1.55,0-1-.68-1.57-2.06-1.57h-2.97v3.13Z"/>
        <path class="cls-3" d="M207.3,229.53c0,4.21-2.8,7.84-8.66,7.84-5.39,0-8.37-3.44-8.37-7.82,0-4.12,2.89-7.8,8.58-7.8,5.39,0,8.45,3.53,8.45,7.78ZM195.39,229.46c0,2.61,1.04,4.53,3.48,4.53s3.31-2.19,3.31-4.44c0-2.59-.91-4.51-3.44-4.51s-3.36,1.98-3.36,4.42Z"/>
        <path class="cls-3" d="M222.81,231.99c0-2.38.06-5.25.17-6.99h-.04c-.72,2.89-1.68,6.74-3.18,12.03h-3.97c-1.19-4.91-2.14-9.06-2.89-12.07h-.04c.11,1.74.28,4.63.28,7.21v4.87h-4.33v-14.94h6.94c.96,3.36,1.91,7.04,2.34,9.54h.02c.57-2.64,1.53-6.12,2.53-9.54h6.92v14.94h-4.73v-5.04Z"/>
        <path class="cls-3" d="M237.61,225.53h-4.95v-3.44h14.69v3.44h-4.91v11.5h-4.84v-11.5Z"/>
        <path class="cls-3" d="M248.32,222.08h4.84v5.4h5.39v-5.4h4.86v14.94h-4.86v-6.1h-5.39v6.1h-4.84v-14.94Z"/>
        <path class="cls-3" d="M278.51,231.08h-7.98v2.51h8.92l-.55,3.44h-13.14v-14.94h13.19v3.44h-8.41v2.08h7.98v3.47Z"/>
        <path class="cls-3" d="M289.82,222.08v14.94h-4.84v-14.94h4.84Z"/>
        <path class="cls-3" d="M292.17,222.08h7.56c5.39,0,8.11,3.3,8.11,7.23,0,4.61-3.38,7.72-8.15,7.72h-7.52v-14.94ZM297.02,233.67h2.1c2.4,0,3.61-1.45,3.61-4.25,0-2.3-.96-3.97-3.61-4h-2.1v8.25Z"/>
        <path class="cls-3" d="M322.1,231.08h-7.98v2.51h8.92l-.55,3.44h-13.14v-14.94h13.19v3.44h-8.41v2.08h7.98v3.47Z"/>
        <path class="cls-3" d="M328.87,234.24l-.96,2.79h-4.86l5.65-14.94h6.33l6.01,14.94h-5.2l-1.02-2.79h-5.95ZM333.69,230.78c-.98-2.7-1.55-4.4-1.91-5.63h-.08c-.32,1.23-.98,3.36-1.78,5.63h3.78Z"/>
        <path class="cls-3" d="M186.88,246.79h-4.95v-3.44h14.69v3.44h-4.91v11.5h-4.84v-11.5Z"/>
        <path class="cls-3" d="M213.56,250.78c0,4.21-2.8,7.84-8.66,7.84-5.39,0-8.37-3.44-8.37-7.82,0-4.12,2.89-7.8,8.58-7.8,5.39,0,8.45,3.53,8.45,7.78ZM201.65,250.72c0,2.61,1.04,4.53,3.48,4.53s3.31-2.19,3.31-4.44c0-2.59-.91-4.51-3.44-4.51s-3.35,1.98-3.35,4.42Z"/>
        <path class="cls-3" d="M224.18,252.78v5.51h-4.78v-14.94h9.04c3.7,0,5.65,1.81,5.65,4.29,0,1.91-1.13,3.06-2.59,3.57.81.34,2.19,1.06,2.19,3.59v.81c0,.85,0,1.96.21,2.68h-4.84c-.23-.64-.3-1.55-.3-3.1v-.49c0-1.4-.45-1.91-2.34-1.91h-2.25ZM224.18,249.68h2.97c1.32,0,2.06-.49,2.06-1.55,0-1-.68-1.57-2.06-1.57h-2.97v3.13Z"/>
        <path class="cls-3" d="M248.35,252.34h-7.98v2.51h8.92l-.55,3.44h-13.14v-14.94h13.19v3.44h-8.41v2.08h7.98v3.47Z"/>
        <path class="cls-3" d="M255.12,255.5l-.96,2.79h-4.86l5.65-14.94h6.33l6.01,14.94h-5.2l-1.02-2.79h-5.95ZM259.94,252.04c-.98-2.7-1.55-4.4-1.91-5.63h-.08c-.32,1.23-.98,3.36-1.78,5.63h3.78Z"/>
        <path class="cls-3" d="M267.74,243.34h4.86v11.48h8l-.57,3.47h-12.29v-14.94Z"/>
        <path class="cls-3" d="M286.04,243.34v14.94h-4.84v-14.94h4.84Z"/>
        <path class="cls-3" d="M291.91,246.79h-4.95v-3.44h14.69v3.44h-4.91v11.5h-4.84v-11.5Z"/>
        <path class="cls-3" d="M307.81,258.29v-5.19c0-.23-.06-.36-.21-.57l-6.01-9.18h5.69c1.21,2.15,2.46,4.4,3.19,6,.72-1.53,2.04-3.74,3.25-6h5.22l-6.14,9.33c-.08.13-.11.26-.11.51v5.1h-4.88Z"/>
      </g>
      <path class="cls-3" d="M342.16,313.82h-184.4c-1.4,0-2.53-1.13-2.53-2.53s1.13-2.53,2.53-2.53h184.4c1.4,0,2.53,1.13,2.53,2.53s-1.13,2.53-2.53,2.53Z"/>
    </g>
  </g>
</svg>