<?xml version="1.0" encoding="UTF-8"?>
<svg id="Layer_2" data-name="Layer 2" xmlns="http://www.w3.org/2000/svg" viewBox="0 0 500 116.46">
  <defs>
    <style>
      .cls-1 {
        fill: #e8e4ea;
        stroke-width: 0px;
      }
    </style>
  </defs>
  <g id="Layer_4" data-name="Layer 4">
    <g>
      <g>
        <path class="cls-1" d="M56.93,116.46C22.35,116.46,0,93.71,0,58.52S24.48,0,59.53,0c39.23,0,49.64,24.03,52.3,34.36.37,1.44.05,2.97-.86,4.15-.91,1.18-2.32,1.86-3.8,1.86h-15.01c-1.96,0-3.73-1.19-4.46-3.01-4.25-10.55-13.77-15.9-28.31-15.9-25.4,0-34.45,18.69-34.45,36.19,0,22.94,13.09,37.2,34.17,37.2,18.37,0,28-8.22,28.65-24.45h-28.36c-2.66,0-4.81-2.15-4.81-4.81v-12.27c0-2.66,2.15-4.81,4.81-4.81h47.21c2.66,0,4.81,2.15,4.81,4.81v56.16c0,2.66-2.15,4.81-4.81,4.81h-11.12c-2.35,0-4.36-1.7-4.75-4.02-.14-.86-.31-2.19-.47-3.76-7.99,6.81-18.71,9.95-33.33,9.95Z"/>
        <path class="cls-1" d="M106.59,109.48h-11.12c-.43-2.6-1.16-10.68-1.16-15.16-6.79,10.97-17.32,17.32-37.39,17.32-32.34,0-52.12-21.22-52.12-53.13C4.81,28.34,25.31,4.81,59.53,4.81c30.61,0,43.74,15.59,47.64,30.75h-15.01c-3.9-9.67-12.85-18.91-32.77-18.91-25.7,0-39.27,18.05-39.27,41,0,24.25,13.71,42.01,38.98,42.01,21.37,0,33.49-10.83,33.49-31.04v-3.03h-33.2v-12.27h47.21v56.16Z"/>
        <path class="cls-1" d="M163.91,116.31c-28.46,0-43.36-21.81-43.36-43.36,0-25.12,18.54-43.36,44.08-43.36,28.56,0,43.5,21.81,43.5,43.36,0,11.65-3.95,22.35-11.13,30.12-8,8.66-19.45,13.24-33.09,13.24ZM164.05,50.48c-14.55,0-19.73,11.61-19.73,22.47s6.26,22.47,20.02,22.47c18.57,0,20.02-17.09,20.02-22.33,0-11.26-6.28-22.62-20.31-22.62Z"/>
        <path class="cls-1" d="M203.32,72.95c0,20.21-13.14,38.55-39.41,38.55-24.69,0-38.54-18.33-38.54-38.55s14.72-38.55,39.27-38.55,38.69,19.2,38.69,38.55ZM139.51,72.95c0,14,8.81,27.29,24.83,27.29s24.83-12.42,24.83-27.14-8.81-27.43-25.12-27.43-24.54,12.7-24.54,27.29Z"/>
        <path class="cls-1" d="M275.79,114.29c-2.66,0-4.81-2.15-4.81-4.81v-42.01c0-14.8-7.15-16.7-13.38-16.7-15.53,0-17.85,14.8-17.85,23.63v35.08c0,2.66-2.15,4.81-4.81,4.81h-13.71c-2.66,0-4.81-2.15-4.81-4.81v-54.57c0-6.06,0-12.93-.14-18.35-.03-1.3.46-2.55,1.36-3.48.91-.93,2.15-1.45,3.45-1.45h13.28c2.44,0,4.49,1.83,4.78,4.25.03.27.06.56.09.89,4.85-3.93,11.94-7.16,22.12-7.16,20.42,0,33.11,13.57,33.11,35.42v44.47c0,2.66-2.15,4.81-4.81,4.81h-13.86Z"/>
        <path class="cls-1" d="M221.22,54.91c0-6.21,0-12.99-.14-18.48h13.28c.29,2.45.58,8.52.58,13.57,3.18-7.07,10.83-15.59,26.42-15.59,17.18,0,28.3,10.54,28.3,30.61v44.47h-13.86v-42.01c0-11.98-4.47-21.51-18.19-21.51-15.16,0-22.67,11.55-22.67,28.44v35.08h-13.71v-54.57Z"/>
        <path class="cls-1" d="M305.97,114.29c-2.66,0-4.81-2.15-4.81-4.81v-10.25c0-1.26.49-2.47,1.38-3.37l42.65-43.5h-36.47c-2.66,0-4.81-2.15-4.81-4.81v-11.12c0-2.66,2.15-4.81,4.81-4.81h65.54c2.66,0,4.81,2.15,4.81,4.81v10.54c0,1.26-.49,2.46-1.37,3.36l-42.1,43.07h41.98c1.44,0,2.8.64,3.71,1.75.91,1.11,1.29,2.56,1.02,3.97l-2.17,11.26c-.44,2.27-2.42,3.9-4.73,3.9h-69.44Z"/>
        <path class="cls-1" d="M305.97,99.23l50.67-51.68h-47.93v-11.12h65.54v10.54l-50.09,51.25h53.42l-2.17,11.26h-69.44v-10.25Z"/>
        <path class="cls-1" d="M392.2,114.29c-2.66,0-4.81-2.15-4.81-4.81v-10.25c0-1.26.49-2.47,1.38-3.37l42.65-43.5h-36.47c-2.66,0-4.81-2.15-4.81-4.81v-11.12c0-2.66,2.15-4.81,4.81-4.81h65.54c2.66,0,4.81,2.15,4.81,4.81v10.54c0,1.26-.49,2.46-1.37,3.36l-42.1,43.07h41.98c1.44,0,2.8.64,3.71,1.75.91,1.11,1.29,2.56,1.02,3.97l-2.17,11.26c-.44,2.27-2.42,3.9-4.73,3.9h-69.44Z"/>
        <path class="cls-1" d="M392.2,99.23l50.67-51.68h-47.93v-11.12h65.54v10.54l-50.09,51.25h53.42l-2.17,11.26h-69.44v-10.25Z"/>
      </g>
      <circle class="cls-1" cx="489.83" cy="104.12" r="10.17"/>
    </g>
  </g>
</svg>